<svg xmlns="http://www.w3.org/2000/svg" xmlns:xlink="http://www.w3.org/1999/xlink" width="521.16" height="506.44" viewBox="0 0 521.16 506.44">
  <defs>
    <linearGradient id="linear-gradient" x1="0.937" y1="1.25" x2="0.063" y2="-0.25" gradientUnits="objectBoundingBox">
      <stop offset="0" stop-color="#e9b49f"/>
      <stop offset="0.091" stop-color="#e9b49f"/>
      <stop offset="0.435" stop-color="#bc457f"/>
      <stop offset="1" stop-color="#6f3fbf"/>
    </linearGradient>
  </defs>
  <g id="_11" data-name="11" transform="matrix(0.259, 0.966, -0.966, 0.259, 387.359, -468.747)">
    <g id="bg" transform="translate(460 94.356)">
      <path id="Shape_699" d="M1372.932,512.737c-20.833-1.756-42.666-9.506-63.132-22.424a204.751,204.751,0,0,1-49.91-44.592,221.2,221.2,0,0,1-32.9-55.9,214.368,214.368,0,0,1-15-60.435,173.9,173.9,0,0,1,3.826-58.217c4.061-16.434,9.553-32.828,14.865-48.685,5.991-17.885,12.188-36.38,16.3-54.87a93.784,93.784,0,0,1,19.642-40.367c9.022-10.762,20.734-19.762,34.812-26.75,26.6-13.2,60.979-19.03,99.417-16.854,36.263,2.054,73.969,11.337,106.171,26.144a183.762,183.762,0,0,1,50.8,35.142,217.848,217.848,0,0,1,36.465,46.566,205.488,205.488,0,0,1,21.012,49.163c4.31,15.872,5.833,30.74,4.4,43a67.644,67.644,0,0,1-8.827,26.03q-1.631,2.832-3.541,5.6a106.632,106.632,0,0,1-23.912,24.366c-22.553,16.98-39.6,39.224-57.658,62.773-22.387,29.2-47.761,62.3-89.223,92.985a88.97,88.97,0,0,1-30.841,14.759,95.327,95.327,0,0,1-23.824,2.949Q1377.452,513.122,1372.932,512.737Zm62.866-18.332c41.319-30.578,66.637-63.6,88.974-92.741,18.107-23.619,35.209-45.929,57.9-63.01,9.224-6.944,19.807-16.844,27.141-29.576a66.449,66.449,0,0,0,8.649-25.567c2.942-25.24-6.5-59.4-25.25-91.382-21.4-36.5-52.194-65.337-86.707-81.205-68.237-31.372-152.334-35.2-204.511-9.3-29.135,14.46-47.231,36.756-53.788,66.268-4.122,18.553-10.328,37.08-16.329,55-5.3,15.833-10.789,32.205-14.839,48.588-19.357,78.328,20.811,171.955,93.432,217.784,44.713,28.214,91.567,30.14,125.332,5.15Zm-60.211,2.75c-19.171-1.563-39.265-8.656-58.109-20.505a187.682,187.682,0,0,1-46-41.029A203.392,203.392,0,0,1,1241.17,384.1a197.713,197.713,0,0,1-13.8-55.735,160.442,160.442,0,0,1,3.541-53.681c3.763-15.22,8.855-30.4,13.78-45.079,5.5-16.392,11.189-33.341,14.984-50.272a86.719,86.719,0,0,1,18.226-37.264c8.355-9.934,19.193-18.239,32.209-24.684,24.525-12.143,56.17-17.512,91.521-15.527a276.66,276.66,0,0,1,97.65,24,168.729,168.729,0,0,1,46.806,32.4,200.318,200.318,0,0,1,33.571,42.981,189.1,189.1,0,0,1,19.309,45.4c3.952,14.663,5.328,28.4,3.98,39.715a62.338,62.338,0,0,1-8.113,23.863q-1.538,2.675-3.354,5.294a97.484,97.484,0,0,1-22.12,22.38c-20.906,15.614-36.7,36.171-53.422,57.934-20.573,26.773-43.887,57.117-81.834,85.251a82.2,82.2,0,0,1-28.374,13.645,87.808,87.808,0,0,1-22.167,2.77q-3.947,0-7.975-.329ZM1310.668,118.5c-18.008,8.917-31.464,21.069-40.226,36.285A88.032,88.032,0,0,0,1260.9,179.6c-3.809,17-9.506,33.977-15.017,50.4-4.918,14.657-10,29.811-13.753,44.981-17.871,72.3,19.11,158.547,86.018,200.61,41.091,25.842,84.161,27.516,115.217,4.473,37.807-28.031,61.065-58.3,81.587-85.008,16.777-21.834,32.622-42.458,53.667-58.177,8.55-6.365,18.368-15.48,25.152-27.262a61.16,61.16,0,0,0,7.939-23.42c2.771-23.281-5.877-54.807-23.128-84.332-19.684-33.686-48.029-60.277-79.82-74.876a271.052,271.052,0,0,0-110.763-24.221c-28.979,0-56.021,5.185-77.324,15.733Zm67.577,363.072c-17.51-1.372-35.868-7.8-53.087-18.586a170.564,170.564,0,0,1-42.094-37.467,185.6,185.6,0,0,1-27.713-47.148,181.076,181.076,0,0,1-12.6-51.035A147.131,147.131,0,0,1,1246,278.193c3.464-14.009,8.158-27.975,12.7-41.479,5.009-14.9,10.188-30.3,13.67-45.674a79.7,79.7,0,0,1,16.81-34.158,91,91,0,0,1,29.606-22.619c22.444-11.082,51.359-15.995,83.622-14.2a252.471,252.471,0,0,1,89.13,21.853,153.629,153.629,0,0,1,42.812,29.657,182.961,182.961,0,0,1,30.681,39.4,173.05,173.05,0,0,1,17.608,41.633c3.593,13.454,4.823,26.052,3.558,36.429a57.066,57.066,0,0,1-7.4,21.7q-1.452,2.52-3.168,4.983a88.321,88.321,0,0,1-20.329,20.4c-19.256,14.249-33.8,33.118-49.186,53.094-18.754,24.342-40.01,51.935-74.443,77.516a75.415,75.415,0,0,1-25.9,12.532,80.382,80.382,0,0,1-20.515,2.593q-3.475,0-7.009-.278Zm-58.9-346.188c-16.582,8.189-28.973,19.364-37.037,33.369a80.831,80.831,0,0,0-8.714,22.564c-3.495,15.437-8.686,30.872-13.7,45.8-4.534,13.481-9.22,27.42-12.67,41.377-13.932,56.362,8.882,139.806,78.605,183.435,37.468,23.472,76.758,24.891,105.1,3.794,34.293-25.48,55.494-53,74.2-77.276,15.447-20.049,30.035-38.984,49.435-53.338,7.874-5.791,16.929-14.116,23.17-24.95a55.853,55.853,0,0,0,7.224-21.272c2.562-21.006-5.486-50.618-21-77.282-17.965-30.872-43.867-55.216-72.933-68.548a247.252,247.252,0,0,0-100.951-22.03C1363.581,121.022,1338.841,125.76,1319.345,135.385Zm61.563,330.608c-15.849-1.181-32.469-6.945-48.064-16.666a153.5,153.5,0,0,1-38.186-33.906,167.845,167.845,0,0,1-25.117-42.773,164.523,164.523,0,0,1-11.407-46.333,133.744,133.744,0,0,1,2.966-44.61c3.164-12.8,7.464-25.547,11.618-37.878,4.516-13.4,9.189-27.257,12.356-41.074a72.676,72.676,0,0,1,15.4-31.055,83.161,83.161,0,0,1,27.005-20.553c20.365-10.023,46.549-14.473,75.722-12.872a228.166,228.166,0,0,1,80.6,19.71c26.574,12.168,50.23,34.447,66.606,62.729a156.937,156.937,0,0,1,15.907,37.869c3.234,12.246,4.318,23.706,3.136,33.143a51.674,51.674,0,0,1-6.671,19.5q-1.371,2.378-3,4.7a79.911,79.911,0,0,1-18.531,18.421c-17.681,12.87-30.985,30.1-45.075,48.344-16.905,21.891-36.066,46.7-66.926,69.695a68.644,68.644,0,0,1-23.442,11.424,72.941,72.941,0,0,1-18.864,2.418q-2.99,0-6.034-.229Zm-52.88-313.723c-15.16,7.46-26.485,17.661-33.849,30.448a73.524,73.524,0,0,0-7.885,20.316c-3.183,13.877-7.862,27.763-12.39,41.193-4.149,12.305-8.438,25.027-11.589,37.778-12.846,51.954,10.272,128.348,71.191,166.257,33.845,21.1,69.355,22.267,94.988,3.116,30.724-22.889,49.829-47.629,66.685-69.456,14.143-18.315,27.5-35.616,45.33-48.591,11.29-8.217,25.266-22.136,27.7-41.76,2.393-19.076-4.842-45.987-18.88-70.232-16.246-28.059-39.7-50.155-66.044-62.217a223.476,223.476,0,0,0-91.143-19.843c-23.989,0-46.417,4.283-64.108,12.991Zm55.54,298.143c-14.188-.992-29.072-6.092-43.042-14.748a136.439,136.439,0,0,1-34.279-30.343,150.053,150.053,0,0,1-22.524-38.4,147.908,147.908,0,0,1-10.21-41.633,120.414,120.414,0,0,1,2.677-40.073c2.867-11.59,6.767-23.127,10.538-34.281,4.024-11.9,8.187-24.211,11.04-36.469a65.639,65.639,0,0,1,13.987-27.951,75.217,75.217,0,0,1,24.4-18.488c18.286-8.963,41.736-12.954,67.821-11.541a203.89,203.89,0,0,1,72.082,17.566h0c23.854,10.9,45.063,30.93,59.722,56.4a140.786,140.786,0,0,1,14.205,34.105c2.875,11.035,3.813,21.36,2.71,29.857a46.262,46.262,0,0,1-5.952,17.321q-1.281,2.229-2.822,4.4a71,71,0,0,1-16.735,16.441c-16.057,11.495-28.114,27.055-40.879,43.53-15.078,19.455-32.165,41.507-59.5,61.936A62,62,0,0,1,1388.73,450.6q-2.551,0-5.162-.185Zm-46.859-281.261c-13.736,6.734-24,15.958-30.666,27.536a66.291,66.291,0,0,0-7.055,18.064c-2.866,12.316-7.037,24.65-11.071,36.584-3.763,11.132-7.656,22.643-10.51,34.184-11.563,46.76,9.131,115.308,63.779,149.082,30.224,18.731,61.953,19.642,84.875,2.437,27.2-20.327,44.23-42.308,59.256-61.7,12.823-16.548,24.936-32.177,41.141-43.781,10.161-7.276,22.748-19.65,25-37.3,2.224-17.147-4.2-41.356-16.76-63.182-14.529-25.246-35.538-45.094-59.156-55.887a199.671,199.671,0,0,0-81.334-17.654c-21.5,0-41.612,3.83-57.5,11.616Zm49.52,265.679c-12.528-.8-25.675-5.236-38.02-12.829a119.428,119.428,0,0,1-30.373-26.783,133.806,133.806,0,0,1-28.943-70.955,107,107,0,0,1,2.39-35.537c2.567-10.385,6.071-20.709,9.462-30.7,3.532-10.4,7.184-21.159,9.718-31.855a58.643,58.643,0,0,1,12.574-24.848,67.388,67.388,0,0,1,21.8-16.424c16.2-7.9,36.924-11.434,59.916-10.213a179.6,179.6,0,0,1,63.558,15.421c21.128,9.632,39.892,27.416,52.835,50.077a124.727,124.727,0,0,1,12.5,30.342c2.516,9.827,3.307,19.015,2.286,26.575a40.973,40.973,0,0,1-5.235,15.151,47.715,47.715,0,0,1-2.639,4.088,62.149,62.149,0,0,1-14.943,14.461c-14.431,10.114-25.237,24-36.68,38.7-13.246,17.022-28.259,36.317-52.069,54.184a55.124,55.124,0,0,1-33.975,11.27q-2.066,0-4.17-.127Zm-40.837-248.8c-12.318,6.007-21.514,14.256-27.484,24.622a59.108,59.108,0,0,0-6.225,15.813c-2.549,10.755-6.21,21.54-9.75,31.97-3.381,9.959-6.878,20.26-9.434,30.591-10.282,41.565,7.991,102.27,56.365,131.908,26.6,16.362,54.548,17.019,74.758,1.761,23.677-17.77,38.638-36.993,51.834-53.952,11.5-14.779,22.364-28.738,36.948-38.96,12.765-8.948,20.683-20.61,22.3-32.841,2.054-15.216-3.554-36.724-14.638-56.13-12.812-22.432-31.374-40.033-52.269-49.557a175.864,175.864,0,0,0-71.523-15.467c-19,0-36.8,3.377-50.881,10.245Zm43.5,233.219c-10.867-.61-22.278-4.382-33-10.914a102.443,102.443,0,0,1-26.469-23.22,116.368,116.368,0,0,1-25.152-61.88,93.621,93.621,0,0,1,2.1-31c2.271-9.182,5.383-18.3,8.39-27.115,3.038-8.9,6.177-18.1,8.4-27.235a51.61,51.61,0,0,1,11.165-21.746,59.52,59.52,0,0,1,19.207-14.359c14.122-6.841,32.107-9.91,52.009-8.882a155.38,155.38,0,0,1,55.032,13.279c18.4,8.36,34.712,23.9,45.928,43.747a108.728,108.728,0,0,1,10.8,26.579c2.161,8.614,2.811,16.668,1.887,23.291a36.009,36.009,0,0,1-4.556,12.993,50.519,50.519,0,0,1-15.574,16.245c-12.8,8.73-21.92,20.385-32.475,33.875-11.416,14.591-24.352,31.127-44.643,46.439a48.234,48.234,0,0,1-29.878,9.988q-1.57.008-3.172-.082Zm-34.812-216.34c-10.9,5.281-19.037,12.557-24.311,21.714a51.986,51.986,0,0,0-5.389,13.561c-2.231,9.188-5.379,18.417-8.424,27.344-3,8.791-6.1,17.881-8.363,27.011-9,36.368,6.849,89.226,48.951,114.729,22.979,13.994,47.145,14.4,64.645,1.083,20.162-15.212,33.046-31.682,44.413-46.212,10.178-13.01,19.79-25.3,32.755-34.137,11.138-7.6,18.1-17.673,19.595-28.38,1.86-13.3-2.948-32.107-12.535-49.081-11.088-19.621-27.2-34.972-45.359-43.224a152.1,152.1,0,0,0-61.715-13.28c-16.5,0-31.988,2.927-44.263,8.872Zm37.472,200.743c-9.209-.411-18.88-3.513-27.966-8.974-16.417-9.789-29.664-25.747-37.3-44.93-7.12-17.894-8.872-37.571-4.807-54,1.991-8.039,4.724-16.005,7.368-23.71,2.52-7.339,5.125-14.933,7.025-22.445a44.47,44.47,0,0,1,9.7-18.629,51.475,51.475,0,0,1,16.563-12.289c12.037-5.8,27.3-8.417,44.142-7.578a131.227,131.227,0,0,1,46.566,11.143c15.681,7.093,29.543,20.385,39.044,37.423,8.239,14.781,12.286,31.189,10.561,42.822a30.76,30.76,0,0,1-3.839,10.843,42.118,42.118,0,0,1-13.6,13.939c-11.208,7.358-19.161,17.437-28.369,29.1-9.569,12.125-20.415,25.868-37.113,38.633a41.569,41.569,0,0,1-25.814,8.7c-.714,0-1.433-.014-2.156-.046Zm-28.875-183.844c-9.438,4.544-16.474,10.82-21.029,18.73a44.481,44.481,0,0,0-4.563,11.366c-1.912,7.561-4.526,15.179-7.054,22.544-2.634,7.679-5.359,15.618-7.339,23.6-7.715,31.174,5.708,76.187,41.535,97.553,19.308,11.6,39.694,11.751,54.534.406,16.573-12.67,27.367-26.344,36.892-38.413,9.275-11.753,17.287-21.9,28.665-29.37,9.534-6.259,15.532-14.754,16.891-23.92,3.219-21.706-14.224-63.242-48.883-78.921h0a128.4,128.4,0,0,0-51.944-11.1C1386.355,212.285,1373.157,214.769,1362.679,219.812Zm31.55,168.245a48.78,48.78,0,0,1-22.95-7.038c-13.557-7.945-24.492-21.093-30.788-37.022-5.858-14.819-7.284-31.124-3.913-44.733,1.7-6.866,4.054-13.649,6.326-20.209,2.016-5.812,4.1-11.824,5.672-17.751,3.011-11.353,10.707-20.256,22.26-25.752,9.953-4.734,22.479-6.894,36.229-6.245a107.005,107.005,0,0,1,38.041,9h0c12.958,5.825,24.378,16.87,32.158,31.1,6.76,12.362,9.993,26.07,8.438,35.774a25.512,25.512,0,0,1-3.126,8.7,33.754,33.754,0,0,1-11.635,11.621c-9.583,5.956-16.343,14.435-24.169,24.254-7.728,9.7-16.485,20.684-29.674,30.9a34.677,34.677,0,0,1-21.71,7.415c-.387,0-.772,0-1.161-.014Zm-22.856-151.374c-8.024,3.817-14,9.121-17.865,15.827a37.325,37.325,0,0,0-3.721,9.114c-1.584,5.973-3.675,12.005-5.7,17.84-2.266,6.534-4.608,13.289-6.294,20.1-6.422,25.916,4.584,63.065,34.122,80.375,15.708,9.206,32.313,9.106,44.419-.268,13.069-10.12,21.779-21.048,29.462-30.687,7.9-9.91,14.721-18.469,24.487-24.537,7.924-4.925,12.962-11.835,14.184-19.458,1.512-9.444-1.668-22.846-8.3-34.978-7.652-13.992-18.864-24.844-31.574-30.558a104.065,104.065,0,0,0-42.058-9.042c-11.49,0-22.339,2.076-31.167,6.273Zm25.529,135.78a37.1,37.1,0,0,1-17.932-5.113c-10.708-6.069-19.335-16.4-24.292-29.092-4.59-11.751-5.686-24.687-3-35.493,1.417-5.719,3.4-11.339,5.317-16.775,1.505-4.261,3.059-8.669,4.287-12.993,2.581-9.095,8.9-16.213,18.278-20.592,15.631-7.3,38.862-6.511,57.809,1.96,10.236,4.556,19.212,13.36,25.274,24.776,5.279,9.945,7.7,20.954,6.309,28.727a20.307,20.307,0,0,1-2.412,6.575,25.53,25.53,0,0,1-9.67,9.29c-7.954,4.527-13.516,11.411-19.956,19.382-5.877,7.276-12.54,15.518-22.24,23.182a27.811,27.811,0,0,1-17.625,6.159Zm-16.816-118.924a32.408,32.408,0,0,0-14.775,13.074,29.615,29.615,0,0,0-2.829,6.726c-1.24,4.361-2.8,8.786-4.311,13.066-1.907,5.409-3.879,11-5.283,16.66-5.028,20.265,3.751,50.188,26.7,63.194,12.256,6.946,24.76,6.6,34.31-.941,9.591-7.578,16.206-15.764,22.042-22.987,6.52-8.068,12.151-15.038,20.311-19.683,6.312-3.593,10.386-8.919,11.469-15,1.341-7.514-1.029-18.214-6.182-27.925-5.932-11.175-14.7-19.778-24.68-24.221h0a80.373,80.373,0,0,0-32.271-6.837c-8.993.006-17.525,1.616-24.5,4.876Zm6.582,100.135c-7.867-4.194-14.188-11.712-17.806-21.165-3.32-8.682-4.083-18.249-2.094-26.252a133.288,133.288,0,0,1,4.391-13.5c.971-2.658,1.974-5.406,2.822-8.083,2.174-6.846,7.136-12.185,14.348-15.445a45.673,45.673,0,0,1,20.335-3.548,57.768,57.768,0,0,1,20.956,4.729c7.522,3.291,14.058,9.848,18.4,18.463,3.8,7.532,5.394,15.843,4.178,21.689a14.961,14.961,0,0,1-1.689,4.405,17.7,17.7,0,0,1-7.732,7c-6.316,3.058-10.67,8.342-15.71,14.457-4.011,4.866-8.556,10.383-14.816,15.51a21.145,21.145,0,0,1-13.571,4.945,25.529,25.529,0,0,1-12.013-3.2Zm2.177-83.3a25.041,25.041,0,0,0-11.7,10.21,22.7,22.7,0,0,0-1.966,4.474c-.859,2.7-1.867,5.463-2.843,8.133a132.877,132.877,0,0,0-4.351,13.372c-3.771,15.173,2.525,37.08,19.274,46.012,8.559,4.563,17.379,3.979,24.2-1.606,6.164-5.049,10.669-10.514,14.644-15.337,5.134-6.23,9.567-11.611,16.131-14.787,4.691-2.271,7.8-6.013,8.74-10.538,1.166-5.582-.394-13.577-4.069-20.868-4.212-8.355-10.528-14.706-17.782-17.879h0a56.7,56.7,0,0,0-22.486-4.642,43.775,43.775,0,0,0-17.792,3.461Zm5.544,69.623c-5.041-2.321-9.068-7.029-11.34-13.252a30.328,30.328,0,0,1-1.181-17.009,81.509,81.509,0,0,1,3.791-10.819c.354-.875.7-1.74,1.041-2.6a18.634,18.634,0,0,1,10.558-10.335c7.2-3.018,16.859-2.838,24.62.459,4.816,2.026,8.914,6.345,11.537,12.162,2.313,5.128,3.088,10.741,2.025,14.65a9.833,9.833,0,0,1-.976,2.358,10.164,10.164,0,0,1-5.822,4.586c-4.656,1.485-7.769,5.167-11.379,9.429a74.123,74.123,0,0,1-7.424,7.916,14.058,14.058,0,0,1-9.421,3.842,14.364,14.364,0,0,1-6.034-1.386Zm3.353-52.858a17.919,17.919,0,0,0-8.844,7.489,16.246,16.246,0,0,0-1.034,2.148c-.338.863-.69,1.734-1.046,2.611a80.6,80.6,0,0,0-3.735,10.652c-2.475,9.914,1.775,24.188,11.829,28.821,4.914,2.264,9.919,1.465,14.1-2.252a73.391,73.391,0,0,0,7.3-7.79c3.731-4.409,6.955-8.217,11.953-9.813a8.771,8.771,0,0,0,5.971-6.078c1.911-7.034-2.741-21.08-12.84-25.332h0a32.851,32.851,0,0,0-12.683-2.509,28.615,28.615,0,0,0-10.971,2.054Zm4.589,39.186a5.822,5.822,0,0,1-3.836-2.75c-1.908-2.976-2.16-7.477-1.422-10.386a15.241,15.241,0,0,1,7.541-9.718,12.019,12.019,0,0,1,9.6-1.034c4.091,1.461,6.089,7.878,5.018,12.218a6.7,6.7,0,0,1-.676,1.739,3.864,3.864,0,0,1-4.136,2c-3.082-.439-4.8,1.91-6.469,4.184-1.373,1.877-2.79,3.812-4.93,3.812a3.816,3.816,0,0,1-.7-.061Zm2.873-21.749a13.988,13.988,0,0,0-6.917,8.921c-.654,2.584-.434,6.757,1.262,9.4a4.545,4.545,0,0,0,3.011,2.2c1.764.324,2.979-1.334,4.384-3.255,1.8-2.452,3.83-5.232,7.656-4.685,2.178.314,3.062-1.35,3.42-2.8.924-3.74-.878-9.545-4.222-10.738a9.031,9.031,0,0,0-3.036-.507,11.9,11.9,0,0,0-5.563,1.464Z" transform="translate(-1211.113 -83.198)" fill="url(#linear-gradient)"/>
    </g>
  </g>
</svg>
