<svg xmlns="http://www.w3.org/2000/svg" xmlns:xlink="http://www.w3.org/1999/xlink" width="573.024" height="602.181" viewBox="0 0 573.024 602.181">
  <defs>
    <linearGradient id="linear-gradient" x1="0.937" y1="1.25" x2="0.063" y2="-0.25" gradientUnits="objectBoundingBox">
      <stop offset="0" stop-color="#e9b49f"/>
      <stop offset="0.091" stop-color="#e9b49f"/>
      <stop offset="0.435" stop-color="#bc457f"/>
      <stop offset="1" stop-color="#6f3fbf"/>
    </linearGradient>
  </defs>
  <g id="_11" data-name="11" transform="translate(-460 -94.356)">
    <g id="bg">
      <path id="Shape_699" d="M1437.768,684.84c-29.18-2.46-59.76-13.315-88.427-31.408a286.784,286.784,0,0,1-69.907-62.459,309.824,309.824,0,0,1-46.086-78.3,300.261,300.261,0,0,1-21-84.649c-2.724-28.686-.921-56.123,5.359-81.543,5.688-23.018,13.38-45.982,20.822-68.191,8.392-25.051,17.071-50.956,22.824-76.855A131.36,131.36,0,0,1,1288.86,144.9c12.637-15.074,29.041-27.68,48.76-37.468,37.26-18.49,85.411-26.654,139.25-23.607,50.792,2.876,103.607,15.879,148.71,36.619,25.572,11.754,49.511,28.318,71.153,49.223a305.132,305.132,0,0,1,51.076,65.224c13.077,22.3,23.252,46.112,29.431,68.862,6.036,22.232,8.171,43.057,6.167,60.224a94.745,94.745,0,0,1-12.364,36.46q-2.284,3.967-4.96,7.851c-8.475,12.3-19.746,23.78-33.493,34.128-31.589,23.783-55.472,54.94-80.76,87.923-31.357,40.9-66.9,87.266-124.972,130.242a124.617,124.617,0,0,1-43.2,20.673,133.519,133.519,0,0,1-33.37,4.13Q1444.1,685.379,1437.768,684.84Zm88.054-25.677c57.875-42.83,93.336-89.085,124.623-129.9,25.362-33.083,49.316-64.332,81.1-88.256,12.919-9.726,27.744-23.593,38.016-41.425a93.074,93.074,0,0,0,12.115-35.811c4.12-35.353-9.1-83.2-35.367-128-29.974-51.12-73.107-91.515-121.448-113.742C1529.28,78.091,1411.488,72.732,1338.4,109c-40.809,20.253-66.155,51.483-75.339,92.819-5.773,25.987-14.466,51.936-22.872,77.031-7.429,22.176-15.111,45.109-20.784,68.055-27.113,109.712,29.148,240.852,130.868,305.043,62.627,39.519,128.255,42.216,175.548,7.214Zm-84.336,3.852c-26.852-2.189-55-12.124-81.391-28.721a262.879,262.879,0,0,1-64.434-57.468,284.894,284.894,0,0,1-42.449-72.169,276.935,276.935,0,0,1-19.328-78.066c-2.5-26.456-.834-51.753,4.96-75.189,5.271-21.318,12.4-42.578,19.3-63.141,7.707-22.959,15.673-46.7,20.988-70.415a121.463,121.463,0,0,1,25.529-52.194c11.7-13.914,26.884-25.547,45.114-34.574,34.351-17.008,78.676-24.528,128.19-21.749,46.721,2.622,95.3,14.561,136.775,33.613a236.333,236.333,0,0,1,65.559,45.383,280.584,280.584,0,0,1,47.022,60.2,264.865,264.865,0,0,1,27.046,63.588c5.535,20.538,7.463,39.773,5.575,55.627a87.317,87.317,0,0,1-11.363,33.424q-2.155,3.746-4.7,7.415a136.545,136.545,0,0,1-30.982,31.347c-29.283,21.871-51.406,50.663-74.827,81.146-28.817,37.5-61.471,80-114.623,119.409a115.138,115.138,0,0,1-39.743,19.112,122.99,122.99,0,0,1-31.048,3.88q-5.528,0-11.171-.461Zm-90.93-530.368c-25.223,12.49-44.07,29.51-56.343,50.823a123.31,123.31,0,0,0-13.37,34.756c-5.335,23.809-13.315,47.59-21.034,70.592-6.888,20.53-14.012,41.756-19.264,63-25.031,101.274,26.767,222.072,120.483,280.988,57.554,36.2,117.882,38.54,161.381,6.265,52.954-39.262,85.532-81.661,114.276-119.067,23.5-30.582,45.693-59.469,75.169-81.486,11.976-8.915,25.728-21.682,35.23-38.184a85.663,85.663,0,0,0,11.12-32.8c3.881-32.609-8.231-76.766-32.395-118.121-27.571-47.183-67.273-84.429-111.8-104.876a379.654,379.654,0,0,0-155.142-33.925c-40.59,0-78.467,7.263-108.306,22.037ZM1445.21,641.19c-24.526-1.922-50.239-10.924-74.357-26.032a238.9,238.9,0,0,1-58.959-52.479,259.957,259.957,0,0,1-38.816-66.039,253.618,253.618,0,0,1-17.652-71.482c-2.278-24.227-.747-47.386,4.556-68.835,4.851-19.622,11.427-39.183,17.788-58.1,7.015-20.865,14.27-42.439,19.147-63.974a111.63,111.63,0,0,1,23.545-47.844c10.769-12.752,24.72-23.412,41.468-31.681,31.436-15.522,71.937-22.4,117.126-19.889,42.649,2.372,86.983,13.242,124.842,30.609a215.185,215.185,0,0,1,59.965,41.54,256.267,256.267,0,0,1,42.974,55.183,242.385,242.385,0,0,1,24.663,58.315c5.032,18.844,6.755,36.49,4.984,51.025a79.931,79.931,0,0,1-10.36,30.4q-2.034,3.53-4.437,6.979a123.71,123.71,0,0,1-28.475,28.568c-26.972,19.958-47.336,46.387-68.893,74.368-26.269,34.095-56.04,72.744-104.27,108.575a105.631,105.631,0,0,1-36.284,17.553,112.591,112.591,0,0,1-28.734,3.633q-4.867,0-9.818-.39ZM1362.71,156.3c-23.226,11.47-40.581,27.123-51.876,46.739a113.211,113.211,0,0,0-12.206,31.6c-4.9,21.622-12.166,43.241-19.194,64.148-6.351,18.882-12.915,38.406-17.747,57.955-19.514,78.945,12.441,195.822,110.1,256.931,52.479,32.877,107.513,34.864,147.213,5.314,48.034-35.689,77.729-74.232,103.927-108.237,21.636-28.082,42.07-54.6,69.242-74.709,11.029-8.111,23.712-19.772,32.453-34.947A78.23,78.23,0,0,0,1734.74,371.3c3.588-29.422-7.684-70.9-29.419-108.246-25.162-43.241-61.443-77.339-102.155-96.012a346.317,346.317,0,0,0-141.4-30.857C1424.67,136.176,1390.017,142.813,1362.71,156.3Zm86.23,463.072c-22.2-1.654-45.478-9.727-67.322-23.344a215,215,0,0,1-53.486-47.491,235.1,235.1,0,0,1-35.18-59.911,230.444,230.444,0,0,1-15.977-64.9c-2.057-22-.66-43.018,4.154-62.483,4.431-17.922,10.455-35.783,16.273-53.054,6.325-18.768,12.871-38.177,17.307-57.531a101.8,101.8,0,0,1,21.566-43.5c9.84-11.59,22.563-21.276,37.825-28.787,28.524-14.038,65.2-20.273,106.062-18.03,38.574,2.119,78.67,11.924,112.9,27.607,37.222,17.044,70.355,48.248,93.292,87.862a219.821,219.821,0,0,1,22.281,53.042c4.529,17.152,6.048,33.2,4.393,46.422a72.381,72.381,0,0,1-9.343,27.308q-1.921,3.331-4.2,6.585a111.926,111.926,0,0,1-25.955,25.8c-24.766,18.026-43.4,42.162-63.135,67.714-23.679,30.661-50.517,65.415-93.741,97.619a96.15,96.15,0,0,1-32.835,16,102.165,102.165,0,0,1-26.422,3.387q-4.189,0-8.451-.321Zm-74.068-439.422c-21.234,10.449-37.1,24.737-47.412,42.647a102.987,102.987,0,0,0-11.044,28.456c-4.458,19.437-11.013,38.887-17.354,57.7-5.811,17.235-11.819,35.054-16.233,52.915-17.993,72.77,14.387,179.773,99.715,232.871,47.406,29.558,97.143,31.188,133.046,4.365,43.034-32.06,69.794-66.712,93.4-97.284,19.809-25.654,38.522-49.887,63.492-68.06,15.814-11.509,35.389-31.006,38.792-58.492,3.352-26.719-6.781-64.412-26.444-98.372-22.755-39.3-55.613-70.251-92.506-87.145a313.015,313.015,0,0,0-127.662-27.793c-33.6,0-65.015,6-89.794,18.2Zm77.794,417.6c-19.873-1.389-40.72-8.533-60.287-20.657a191.1,191.1,0,0,1-48.014-42.5,210.175,210.175,0,0,1-31.549-53.783,207.172,207.172,0,0,1-14.3-58.315,168.659,168.659,0,0,1,3.75-56.129c4.016-16.233,9.478-32.393,14.76-48.016,5.636-16.673,11.467-33.912,15.463-51.081a91.937,91.937,0,0,1,19.591-39.15c8.9-10.432,20.4-19.144,34.176-25.9,25.613-12.554,58.458-18.145,94.994-16.165,34.5,1.866,70.357,10.6,100.963,24.6h0c33.411,15.268,63.119,43.323,83.65,79a197.192,197.192,0,0,1,19.9,47.77c4.026,15.456,5.341,29.918,3.8,41.819a64.8,64.8,0,0,1-8.337,24.261q-1.795,3.121-3.953,6.159a99.441,99.441,0,0,1-23.441,23.029c-22.491,16.1-39.379,37.894-57.258,60.971-21.119,27.25-45.052,58.137-83.336,86.752a86.846,86.846,0,0,1-53.334,17.587q-3.573,0-7.23-.259ZM1387.03,203.592c-19.24,9.432-33.615,22.351-42.952,38.568a92.857,92.857,0,0,0-9.882,25.3c-4.014,17.251-9.857,34.527-15.506,51.241-5.271,15.592-10.724,31.716-14.722,47.881-16.2,65.5,12.79,161.508,89.334,208.815,42.334,26.236,86.776,27.512,118.882,3.413,38.095-28.472,61.951-59.259,83-86.42,17.961-23.179,34.927-45.07,57.624-61.323,14.232-10.191,31.862-27.523,35.012-52.244,3.116-24.017-5.879-57.925-23.475-88.5-20.35-35.361-49.777-63.162-82.858-78.279a279.672,279.672,0,0,0-113.922-24.728c-30.108,0-58.284,5.364-80.534,16.271Zm69.361,372.127c-17.548-1.121-35.963-7.334-53.253-17.97a167.279,167.279,0,0,1-42.542-37.514,187.418,187.418,0,0,1-40.539-99.384,149.868,149.868,0,0,1,3.348-49.775c3.6-14.545,8.5-29.007,13.252-42.994,4.947-14.569,10.062-29.636,13.612-44.619a82.138,82.138,0,0,1,17.612-34.8,94.387,94.387,0,0,1,30.539-23c22.7-11.07,51.719-16.015,83.922-14.305a251.556,251.556,0,0,1,89.024,21.6c29.594,13.492,55.875,38.4,74,70.141a174.7,174.7,0,0,1,17.515,42.5c3.525,13.764,4.632,26.634,3.2,37.222a57.393,57.393,0,0,1-7.332,21.221,66.85,66.85,0,0,1-3.7,5.726,87.051,87.051,0,0,1-20.931,20.255c-20.214,14.167-35.349,33.618-51.376,54.207-18.553,23.842-39.582,50.868-72.931,75.894a77.21,77.21,0,0,1-47.587,15.785q-2.893.006-5.841-.178Zm-57.2-348.484c-17.254,8.414-30.134,19.969-38.5,34.487a82.792,82.792,0,0,0-8.719,22.149c-3.57,15.064-8.7,30.17-13.656,44.779-4.736,13.95-9.634,28.377-13.214,42.848-14.4,58.219,11.193,143.246,78.949,184.759,37.261,22.918,76.4,23.839,104.712,2.466,33.164-24.89,54.119-51.814,72.6-75.569,16.11-20.7,31.325-40.252,51.753-54.57,17.879-12.533,28.97-28.868,31.231-46,2.876-21.313-4.979-51.437-20.5-78.619-17.945-31.42-43.945-56.073-73.212-69.413a246.327,246.327,0,0,0-100.18-21.664c-26.609,0-51.546,4.73-71.267,14.35ZM1460.125,553.9c-15.221-.854-31.2-6.138-46.219-15.287a143.486,143.486,0,0,1-37.075-32.524,162.992,162.992,0,0,1-35.23-86.673,131.13,131.13,0,0,1,2.942-43.421c3.181-12.861,7.54-25.63,11.752-37.98,4.255-12.464,8.652-25.352,11.76-38.147a72.29,72.29,0,0,1,15.638-30.459,83.367,83.367,0,0,1,26.9-20.112c19.78-9.582,44.972-13.881,72.847-12.441a217.635,217.635,0,0,1,77.082,18.6c25.772,11.71,48.619,33.473,64.331,61.275a152.292,152.292,0,0,1,15.128,37.229c3.027,12.065,3.937,23.346,2.643,32.623a50.434,50.434,0,0,1-6.382,18.2c-4.891,8.493-12.291,16.268-21.813,22.754-17.933,12.228-30.7,28.553-45.486,47.447-15.989,20.437-34.109,43.6-62.53,65.045a67.56,67.56,0,0,1-41.849,13.99q-2.2.011-4.443-.114Zm-48.76-303.02c-15.27,7.4-26.664,17.588-34.052,30.414a72.809,72.809,0,0,0-7.549,18.994c-3.124,12.87-7.534,25.8-11.8,38.3-4.2,12.313-8.55,25.045-11.714,37.834-12.606,50.94,9.593,124.976,68.564,160.7,32.186,19.6,66.034,20.167,90.546,1.517,28.24-21.307,46.286-44.376,62.209-64.727,14.256-18.222,27.72-35.432,45.879-47.814,15.6-10.638,25.349-24.754,27.446-39.751,2.6-18.625-4.129-44.971-17.557-68.746-15.53-27.482-38.095-48.984-63.532-60.543a213.048,213.048,0,0,0-86.442-18.6c-23.114,0-44.8,4.1-62,12.427Zm52.486,281.175c-12.9-.576-26.445-4.92-39.17-12.569-22.994-13.712-41.549-36.063-52.245-62.932-9.974-25.063-12.427-52.625-6.732-75.631,2.789-11.26,6.617-22.418,10.32-33.209,3.53-10.279,7.178-20.916,9.84-31.438a62.289,62.289,0,0,1,13.586-26.093,72.1,72.1,0,0,1,23.2-17.213c16.86-8.119,38.24-11.789,61.828-10.615A183.806,183.806,0,0,1,1549.7,277.96c21.964,9.935,41.38,28.553,54.688,52.418,11.54,20.7,17.208,43.686,14.793,59.98a43.087,43.087,0,0,1-5.377,15.187,59,59,0,0,1-19.056,19.524c-15.7,10.306-26.838,24.424-39.735,40.759-13.4,16.983-28.595,36.232-51.983,54.112a58.223,58.223,0,0,1-36.157,12.18c-1,0-2.007-.019-3.021-.065Zm-40.444-257.5c-13.219,6.365-23.074,15.155-29.455,26.234a62.3,62.3,0,0,0-6.391,15.92c-2.678,10.591-6.339,21.261-9.88,31.577-3.69,10.755-7.506,21.876-10.279,33.061C1356.6,425,1375.4,488.052,1425.579,517.979c27.044,16.247,55.6,16.459,76.384.568,23.213-17.747,38.332-36.9,51.673-53.8,12.992-16.461,24.213-30.676,40.15-41.138,13.354-8.766,21.755-20.665,23.658-33.5,4.509-30.4-19.924-88.581-68.469-110.542h0a179.838,179.838,0,0,0-72.756-15.554C1456.568,264.005,1438.083,267.485,1423.407,274.548ZM1467.6,510.2c-10.555-.311-21.671-3.721-32.145-9.858-18.989-11.128-34.3-29.544-43.125-51.855-8.206-20.757-10.2-43.595-5.481-62.656,2.383-9.617,5.678-19.118,8.861-28.306,2.824-8.141,5.743-16.562,7.944-24.863,4.217-15.9,15-28.372,31.179-36.07,13.941-6.631,31.486-9.656,50.744-8.748a149.879,149.879,0,0,1,53.282,12.612h0c18.15,8.158,34.145,23.629,45.043,43.561,9.468,17.314,14,36.516,11.819,50.108a35.731,35.731,0,0,1-4.378,12.19,47.28,47.28,0,0,1-16.3,16.277c-13.423,8.342-22.891,20.219-33.853,33.972-10.825,13.581-23.09,28.972-41.563,43.276a48.571,48.571,0,0,1-30.409,10.386c-.542,0-1.082,0-1.625-.02Zm-32.014-212.024c-11.238,5.347-19.615,12.776-25.023,22.168a52.273,52.273,0,0,0-5.212,12.766c-2.219,8.366-5.148,16.815-7.982,24.988-3.174,9.152-6.455,18.614-8.816,28.153-8.995,36.3,6.421,88.334,47.793,112.578,22,12.894,45.26,12.754,62.216-.375,18.305-14.174,30.5-29.481,41.266-42.982,11.063-13.881,20.619-25.869,34.3-34.368,11.1-6.9,18.155-16.577,19.867-27.254,2.118-13.228-2.336-32-11.625-48.992-10.718-19.6-26.422-34.8-44.224-42.8a145.761,145.761,0,0,0-58.909-12.664c-16.094,0-31.289,2.907-43.654,8.786Zm35.757,190.182a51.964,51.964,0,0,1-25.117-7.161c-15-8.5-27.082-22.971-34.026-40.748-6.429-16.459-7.964-34.579-4.208-49.714,1.985-8.01,4.762-15.882,7.448-23.5,2.108-5.969,4.285-12.142,6-18.2,3.615-12.739,12.469-22.71,25.6-28.843,21.893-10.225,54.432-9.119,80.971,2.746,14.337,6.382,26.909,18.713,35.4,34.7,7.394,13.929,10.779,29.35,8.838,40.238a28.444,28.444,0,0,1-3.378,9.21,35.76,35.76,0,0,1-13.545,13.012c-11.142,6.341-18.932,15.983-27.951,27.147-8.232,10.191-17.565,21.735-31.151,32.47a38.954,38.954,0,0,1-24.687,8.627Zm-23.554-166.573c-9.2,4.294-16.214,10.53-20.694,18.312a41.481,41.481,0,0,0-3.962,9.421c-1.737,6.108-3.923,12.307-6.038,18.3-2.671,7.576-5.434,15.407-7.4,23.335-7.042,28.385,5.254,70.3,37.4,88.514,17.166,9.729,34.68,9.249,48.057-1.318,13.434-10.615,22.7-22.08,30.873-32.2,9.132-11.3,17.019-21.063,28.448-27.569,8.842-5.032,14.547-12.493,16.064-21,1.878-10.524-1.442-25.512-8.659-39.114-8.308-15.653-20.584-27.7-34.568-33.925h0a112.577,112.577,0,0,0-45.2-9.576c-12.6.009-24.547,2.264-34.32,6.829Zm9.219,140.256c-11.019-5.874-19.873-16.4-24.94-29.646-4.65-12.16-5.719-25.561-2.934-36.771a186.73,186.73,0,0,1,6.15-18.908c1.361-3.722,2.766-7.571,3.953-11.322,3.045-9.589,9.995-17.068,20.1-21.633,8.061-3.642,17.909-5.359,28.483-4.97a80.914,80.914,0,0,1,29.352,6.624c10.536,4.61,19.69,13.793,25.77,25.861,5.32,10.55,7.556,22.19,5.852,30.379a20.96,20.96,0,0,1-2.366,6.17,24.8,24.8,0,0,1-10.831,9.8c-8.847,4.283-14.945,11.685-22,20.249-5.618,6.816-11.984,14.544-20.752,21.725a29.617,29.617,0,0,1-19.009,6.926A35.758,35.758,0,0,1,1457,462.053Zm3.049-116.682a35.074,35.074,0,0,0-16.392,14.3,31.791,31.791,0,0,0-2.753,6.267c-1.2,3.784-2.616,7.651-3.982,11.391a186.13,186.13,0,0,0-6.094,18.73c-5.282,21.252,3.536,51.936,27,64.448,11.988,6.391,24.342,5.573,33.894-2.25,8.634-7.072,14.943-14.727,20.511-21.481,7.191-8.727,13.4-16.263,22.594-20.712,6.571-3.181,10.92-8.422,12.242-14.76,1.633-7.819-.552-19.016-5.7-29.229-5.9-11.7-14.746-20.6-24.907-25.043h0a79.422,79.422,0,0,0-31.5-6.5c-9.073.005-17.753,1.609-24.92,4.848Zm7.765,97.519c-7.06-3.251-12.7-9.846-15.884-18.561-2.825-7.74-3.443-16.646-1.654-23.825a114.165,114.165,0,0,1,5.31-15.153c.5-1.226.985-2.437,1.458-3.641,2.548-6.482,7.663-11.486,14.789-14.476,10.078-4.228,23.615-3.975,34.485.642,6.746,2.838,12.485,8.887,16.16,17.035,3.239,7.182,4.325,15.045,2.837,20.52a13.773,13.773,0,0,1-1.367,3.3,14.236,14.236,0,0,1-8.155,6.424c-6.521,2.08-10.882,7.237-15.938,13.206a103.809,103.809,0,0,1-10.4,11.088,19.691,19.691,0,0,1-13.2,5.381,20.119,20.119,0,0,1-8.451-1.941Zm4.7-74.036a25.1,25.1,0,0,0-12.388,10.49,22.764,22.764,0,0,0-1.449,3.009c-.474,1.209-.966,2.428-1.465,3.657a112.9,112.9,0,0,0-5.232,14.92c-3.467,13.886,2.486,33.88,16.568,40.369,6.883,3.172,13.894,2.052,19.744-3.154a102.8,102.8,0,0,0,10.226-10.911c5.225-6.175,9.741-11.509,16.742-13.745a12.285,12.285,0,0,0,8.364-8.513c2.677-9.852-3.839-29.526-17.985-35.481h0a46.014,46.014,0,0,0-17.765-3.514,40.08,40.08,0,0,0-15.367,2.876Zm6.428,54.887a8.154,8.154,0,0,1-5.372-3.852c-2.673-4.168-3.025-10.472-1.992-14.547a21.348,21.348,0,0,1,10.563-13.612,16.835,16.835,0,0,1,13.45-1.448c5.73,2.046,8.529,11.035,7.028,17.113a9.388,9.388,0,0,1-.947,2.435,5.412,5.412,0,0,1-5.793,2.8c-4.317-.615-6.73,2.675-9.062,5.861-1.923,2.629-3.908,5.339-6.905,5.34a5.344,5.344,0,0,1-.975-.086Zm4.024-30.464a19.593,19.593,0,0,0-9.688,12.495c-.915,3.62-.608,9.464,1.768,13.172a6.366,6.366,0,0,0,4.217,3.075c2.47.454,4.172-1.869,6.141-4.559,2.515-3.435,5.364-7.328,10.724-6.562,3.051.439,4.289-1.892,4.791-3.919,1.294-5.238-1.23-13.37-5.913-15.04a12.649,12.649,0,0,0-4.252-.71,16.661,16.661,0,0,0-7.792,2.051Z" transform="translate(-751.113 11.158)" fill="url(#linear-gradient)"/>
    </g>
  </g>
</svg>
