<svg xmlns="http://www.w3.org/2000/svg" xmlns:xlink="http://www.w3.org/1999/xlink" width="833.978" height="835.655" viewBox="0 0 833.978 835.655">
  <defs>
    <linearGradient id="linear-gradient" x1="1.25" y1="0.79" x2="-0.25" y2="0.21" gradientUnits="objectBoundingBox">
      <stop offset="0" stop-color="#fc5050"/>
      <stop offset="0.56" stop-color="#7e4ca8"/>
      <stop offset="1" stop-color="#0048ff"/>
    </linearGradient>
  </defs>
  <path id="Shape_701" d="M327.266,608.966a238.605,238.605,0,0,0,47.636-7.453,304.728,304.728,0,0,0,48.642-17.2,350.4,350.4,0,0,0,47.468-25.982,362.2,362.2,0,0,0,44.114-33.822q2.88-2.583,5.7-5.225A339.494,339.494,0,0,0,553.7,483.8a302.576,302.576,0,0,0,30.843-46.665c18.442-34.663,28.433-70.8,29.695-107.4a344.49,344.49,0,0,0-12.063-102.023,366.9,366.9,0,0,0-38.878-91.718,353.531,353.531,0,0,0-27.383-39.627,321.9,321.9,0,0,0-31.556-34.206,279.142,279.142,0,0,0-34.893-27.84A233.179,233.179,0,0,0,432.077,13.8C414.667,6.293,397.84,1.981,382.066.988c-15.353-.97-29.685,1.2-42.6,6.443a88.234,88.234,0,0,0-31.32,21.717c-9.026,9.634-16.528,21.581-22.3,35.51-19.081,46.037-19.88,75.057-20.522,98.375-.5,18.089-.893,32.377-9.559,48.486-9.468,17.6-19.915,31.061-31.034,41.49-30.193,28.316-65.391,34.282-99.739,40.108-11.345,1.925-23.074,3.915-34.338,6.686a158.886,158.886,0,0,0-32.9,11.618c-15.766,7.818-29.346,18.626-39.272,31.253A85.074,85.074,0,0,0,6,364.242,72.146,72.146,0,0,0,1,389a106.53,106.53,0,0,0,2.929,26.515,148.563,148.563,0,0,0,8.691,25.612c6.351,14.481,15.26,29.63,27.236,46.31,16.007,22.293,31.7,40.118,47.968,54.495C117.777,568.4,155.983,587.4,201.383,598.42a398.614,398.614,0,0,0,63.292,9.8c11.994.919,24.33,1.379,36.88,1.379Q314.283,609.6,327.266,608.966ZM431.5,15.12C539.433,61.658,617.376,196.893,612.8,329.685c-2.513,72.954-40.441,139.634-93.513,189.4-55.237,51.8-126.875,85.272-192.085,88.449-70.457,3.435-169.012-5.345-238.415-66.673-16.19-14.3-31.809-32.052-47.753-54.253C14.447,449.581,1.824,417.664,2.44,389.033c.78-36.2,29.415-63.164,55.953-76.324,20.954-10.39,44.276-14.35,66.835-18.174,23.522-3.991,47.844-8.117,70.406-19.437a125.909,125.909,0,0,0,32.522-23.34c10.9-10.779,20.35-23.718,28.871-39.56,8.83-16.412,9.225-30.848,9.731-49.128.638-23.2,1.432-52.073,20.412-97.865,6.613-15.956,15.533-29.22,26.369-39.382A85.736,85.736,0,0,1,340,8.764a92.383,92.383,0,0,1,34.938-6.531C392.53,2.233,411.611,6.542,431.5,15.12ZM340,592.611a217.568,217.568,0,0,0,37.464-5.326,271.014,271.014,0,0,0,38.334-11.929,313.453,313.453,0,0,0,37.966-17.983,336.466,336.466,0,0,0,65.877-48.1,311.783,311.783,0,0,0,33.438-36.71c18.731-24.234,32.736-50.08,41.628-76.83a219.8,219.8,0,0,0,11.25-61.156,315.316,315.316,0,0,0-10.861-94.9A335.214,335.214,0,0,0,558.934,154.6a307.7,307.7,0,0,0-55.008-68.223c-21.154-19.506-43.847-34.411-67.446-44.31C420.35,35.3,404.8,31.452,390.25,30.622A89.531,89.531,0,0,0,350.9,36.756a81.912,81.912,0,0,0-28.81,20.034A109.016,109.016,0,0,0,301.458,89.5c-17.748,42.6-18.67,69.4-19.41,90.939-.108,3.164-.211,6.155-.362,9.09-.652,12.6-2.38,23.4-8.7,35.149-8.74,16.107-18.362,28.464-28.594,38.058-27.867,26.131-60.276,31.826-91.906,37.388C131.566,303.8,109.934,307.6,90.44,317.41a106.3,106.3,0,0,0-36.087,29.01,78.984,78.984,0,0,0-11.46,19.964,67.06,67.06,0,0,0-4.572,22.9,98.966,98.966,0,0,0,2.718,24.5,137.768,137.768,0,0,0,8.022,23.669c5.867,13.4,14.089,27.4,25.139,42.813,14.762,20.582,29.255,37.058,44.3,50.365,27.727,24.527,63.069,42.122,105.048,52.3a367.457,367.457,0,0,0,58.541,9.043c10.948.831,22.2,1.245,33.649,1.245q12.005,0,24.256-.608ZM435.921,43.39c101.115,42.392,173.595,167.558,168.6,291.137a218.343,218.343,0,0,1-11.178,60.757c-14.57,43.826-41.456,82.026-74.241,112.77-53.28,49.966-122.157,80.255-179.17,83.122-65.115,3.253-156.22-4.8-220.47-61.624-14.967-13.237-29.387-29.634-44.088-50.126-24.507-34.176-36.155-63.654-35.613-90.118.685-33.378,26.964-58.362,51.324-70.613,19.3-9.716,39.874-13.333,61.648-17.161,21.643-3.807,44.024-7.741,64.822-18.247a117.517,117.517,0,0,0,30.005-21.565c10.072-9.93,18.8-21.826,26.69-36.368,6.447-11.983,8.208-22.96,8.868-35.757.154-2.947.257-5.944.366-9.115.732-21.418,1.65-48.075,19.3-90.434,6.146-14.671,14.391-26.881,24.377-36.242A79.439,79.439,0,0,1,351.44,38.088a86.034,86.034,0,0,1,32.783-6.164C400.291,31.924,417.723,35.759,435.921,43.39ZM352.729,576.254a201.478,201.478,0,0,0,34.524-4.956,250.792,250.792,0,0,0,35.3-11.009A289.94,289.94,0,0,0,457.5,543.737,310.561,310.561,0,0,0,518.382,499.3a286.584,286.584,0,0,0,30.478-33.4c17.223-22.2,30.107-45.861,38.292-70.327a204.728,204.728,0,0,0,10.521-56.148,288.48,288.48,0,0,0-9.792-87.786A304.882,304.882,0,0,0,554.466,173.2a279.3,279.3,0,0,0-51-62.607c-19.622-17.837-40.68-31.384-62.579-40.264-14.2-5.758-27.9-9.115-40.724-9.976a84.663,84.663,0,0,0-34.98,4.594A74.961,74.961,0,0,0,337.1,83.264a99.521,99.521,0,0,0-20.027,31.077c-16.457,39.031-17.477,63.6-18.3,83.349-.116,2.814-.227,5.474-.378,8.087-.57,9.869-1.956,20.582-8.18,32.049-29.695,54.692-70.6,62.134-110.156,69.327-19.217,3.5-39.091,7.11-56.936,16.25a97.711,97.711,0,0,0-32.9,26.769,72.742,72.742,0,0,0-10.434,18.358,61.94,61.94,0,0,0-4.148,21.03c-.266,13.754,3.051,28.627,9.859,44.209,5.381,12.318,12.918,25.178,23.043,39.317,13.516,18.871,26.807,34,40.635,46.235,25.505,22.582,57.987,38.774,96.544,48.123a336.167,336.167,0,0,0,53.788,8.284c9.9.745,20.077,1.118,30.424,1.118q11.277,0,22.8-.59ZM596.234,339.37a203.281,203.281,0,0,1-10.449,55.755c-13.368,39.963-37.962,74.835-67.96,102.965-49.074,46.016-112.615,74-165.169,76.73-59.773,3.075-143.43-4.247-202.524-56.576-13.746-12.168-26.968-27.213-40.42-46-22.43-31.327-33.1-58.365-32.632-82.664.592-30.551,24.51-53.56,46.7-64.9,17.658-9.042,36.543-12.477,56.539-16.113,29.129-5.3,58.985-10.73,84.662-34.807,9.486-8.9,18.4-20.333,26.5-35.252,6.359-11.715,7.772-22.616,8.351-32.654.151-2.626.261-5.29.379-8.112.816-19.629,1.83-44.059,18.187-82.852,5.651-13.407,13.116-24.374,22.087-32.789,24.2-22.69,59.4-26.85,99.856-10.446C532.794,109.149,601.272,226.743,596.234,339.37ZM440.343,71.663l.27-.666ZM365.461,559.9a185.421,185.421,0,0,0,31.587-4.588,230.239,230.239,0,0,0,32.269-10.089,274.27,274.27,0,0,0,62.476-34.8,281.636,281.636,0,0,0,25.337-21.086,262.236,262.236,0,0,0,27.517-30.087c15.716-20.167,27.474-41.642,34.952-63.827a188.807,188.807,0,0,0,9.792-51.14,260.806,260.806,0,0,0-8.65-80.671,273.863,273.863,0,0,0-30.673-71.8,251.058,251.058,0,0,0-47.029-56.991C484.925,118.65,465.5,106.464,445.288,98.6c-12.921-5.03-25.357-7.934-36.962-8.63a78.111,78.111,0,0,0-31.76,4.305,68.65,68.65,0,0,0-25.546,16.643,91.172,91.172,0,0,0-18.33,28.269c-15.15,35.543-16.282,57.9-17.194,75.859-.123,2.43-.24,4.725-.387,6.985-.543,8.376-1.88,18.366-7.663,28.954-26.951,49.347-64.007,56.385-99.841,63.185-17.5,3.323-35.6,6.759-51.794,15.229A89.144,89.144,0,0,0,126.1,353.924a66.671,66.671,0,0,0-9.412,16.752,56.927,56.927,0,0,0-3.723,19.164c-.226,12.526,2.8,26.069,8.976,40.25,4.9,11.235,11.747,22.952,20.945,35.821,12.271,17.162,24.364,30.934,36.969,42.1,23.283,20.642,52.9,35.427,88.037,43.943,23.4,5.671,48.908,8.525,76.062,8.525q10.594,0,21.511-.58Zm79.3-459.972c85.6,33.325,148.5,140.626,143.189,244.281a187.359,187.359,0,0,1-9.718,50.752c-12.166,36.1-34.474,67.646-61.683,93.16-44.864,42.072-103.067,67.735-151.166,70.34-54.431,2.893-130.637-3.7-184.577-51.527-12.524-11.1-24.546-24.792-36.754-41.865C123.705,436.593,114,411.992,114.4,389.863c.5-27.729,22.058-48.762,42.072-59.195,16.01-8.369,33.2-11.633,51.4-15.088,26.4-5.012,53.464-10.153,76.764-32,8.615-8.076,16.712-18.435,24.073-31.915,5.918-10.832,7.283-21.013,7.834-29.548.146-2.27.264-4.572.389-7.008.9-17.847,2.032-40.059,17.08-75.368,5.263-12.348,12.1-22.408,20.306-30.1,13-12.189,29.424-18.435,48.433-18.435C415.651,91.211,429.743,94.086,444.764,99.933ZM378.191,543.547c18.507-1.051,37.974-5.556,57.863-13.393a249.622,249.622,0,0,0,56.509-31.483,256.613,256.613,0,0,0,23.215-19.3,238.606,238.606,0,0,0,24.581-26.8c14.211-18.13,24.871-37.408,31.685-57.3a174.027,174.027,0,0,0,9.064-46.135,233.382,233.382,0,0,0-7.5-73.555,243.16,243.16,0,0,0-27.922-65.162,222.883,222.883,0,0,0-43.06-51.378c-16.6-14.5-34.411-25.328-52.935-32.182a113.078,113.078,0,0,0-33.2-7.291,71.512,71.512,0,0,0-28.534,4.016,62.317,62.317,0,0,0-23.017,14.975,82.92,82.92,0,0,0-16.64,25.465c-13.85,32.073-15.1,52.213-16.1,68.4-.126,2.037-.245,3.96-.387,5.857-.76,10.281-2.963,18.255-7.144,25.855-24.209,44-57.413,50.634-89.522,57.045-15.785,3.148-32.107,6.41-46.658,14.21a80.7,80.7,0,0,0-26.529,22.286,60.566,60.566,0,0,0-8.383,15.147,51.862,51.862,0,0,0-3.3,17.3c-.183,11.3,2.54,23.509,8.094,36.289,4.412,10.153,10.576,20.726,18.846,32.325,11.026,15.449,21.919,27.872,33.3,37.974,21.056,18.7,47.816,32.079,79.532,39.763a289.736,289.736,0,0,0,68.119,7.638q9.853,0,20.011-.556Zm201.48-194.493a172.571,172.571,0,0,1-8.987,45.753c-11.033,32.211-31.076,60.43-55.482,83.32-40.688,38.156-93.52,61.514-137.086,63.986-49.09,2.709-117.85-3.153-166.632-46.479-11.3-10.031-22.124-22.373-33.088-37.734-18.272-25.625-27-47.793-26.675-67.759.342-21.151,14.342-41.147,37.449-53.486,14.363-7.7,29.857-10.793,46.26-14.068,23.673-4.727,47.94-9.575,68.859-29.187a113.6,113.6,0,0,0,21.643-28.576c4.286-7.79,6.544-15.946,7.322-26.443.142-1.909.26-3.837.387-5.877.993-16.071,2.232-36.072,15.985-67.913,17.329-40.122,53.618-53.387,99.562-36.388C527.947,157.346,585.265,254.356,579.671,349.055ZM449.187,128.2l.252-.673ZM390.925,527.193c16.607-.994,34.061-5.067,51.886-12.1a225.119,225.119,0,0,0,50.568-28.146A230.243,230.243,0,0,0,514.507,469.4a213.863,213.863,0,0,0,21.617-23.489,174.979,174.979,0,0,0,28.365-50.792,158.4,158.4,0,0,0,8.335-41.125,206.249,206.249,0,0,0-6.336-66.44,212.567,212.567,0,0,0-25.159-58.525,194.89,194.89,0,0,0-39.091-45.76c-15.094-12.831-31.3-22.3-48.152-28.145a103.11,103.11,0,0,0-29.412-5.962,64.953,64.953,0,0,0-25.313,3.728A56.17,56.17,0,0,0,378.869,166.2a74.588,74.588,0,0,0-14.949,22.668c-12.57,28.627-13.929,46.562-15.021,60.97-.123,1.628-.24,3.166-.366,4.691a54.914,54.914,0,0,1-6.63,22.762c-21.464,38.658-50.812,44.877-79.2,50.892-14.716,3.12-28.627,6.067-41.532,13.2a72.21,72.21,0,0,0-23.339,20.046,54.386,54.386,0,0,0-7.358,13.545A46.8,46.8,0,0,0,187.6,390.4c-.141,10.072,2.286,20.95,7.212,32.329a159.224,159.224,0,0,0,16.748,28.83c9.779,13.74,19.475,24.809,29.635,33.842,18.833,16.762,42.731,28.734,71.027,35.583a256.132,256.132,0,0,0,60.2,6.753q9.1,0,18.5-.548ZM571.39,353.9a156.866,156.866,0,0,1-8.258,40.752c-9.847,28.346-27.6,53.234-49.214,73.5-36.486,34.214-83.984,55.268-123.076,57.609-43.748,2.528-105.058-2.607-148.685-41.431-10.08-8.961-19.7-19.951-29.42-33.6-16.195-22.779-23.942-42.505-23.694-60.306.261-18.757,12.531-36.617,32.823-47.78,12.722-7.029,26.523-9.957,41.136-13.054,20.94-4.438,42.406-8.989,60.942-26.369a101.823,101.823,0,0,0,19.215-25.235,56.268,56.268,0,0,0,6.8-23.337c.133-1.532.248-3.075.373-4.706,1.083-14.3,2.431-32.093,14.9-60.5,15.627-35.6,47.013-47.3,88.376-32.962C516.661,178.338,577.955,258.159,571.39,353.9ZM453.614,156.479l.239-.679ZM403.657,510.843c14.705-.939,30.151-4.578,45.906-10.815A200.632,200.632,0,0,0,494.2,475.212a204.71,204.71,0,0,0,19.032-15.78c20.332-19.065,35.532-41.363,43.7-64.464a142.683,142.683,0,0,0,7.607-36.117,179.5,179.5,0,0,0-5.156-59.327A182.312,182.312,0,0,0,537,247.643,167.087,167.087,0,0,0,501.881,207.5a131.237,131.237,0,0,0-43.4-24.108c-18.273-5.811-34.321-6.217-47.7-1.208-13.646,5.108-24.161,15.717-31.244,31.53-11.31,25.237-12.782,40.973-13.966,53.617-.111,1.2-.22,2.324-.33,3.451a50.051,50.051,0,0,1-6.111,19.667c-18.718,33.313-44.207,39.117-68.857,44.735-12.937,2.945-25.155,5.728-36.423,12.205A63.738,63.738,0,0,0,233.7,365.191a43.976,43.976,0,0,0-8.781,25.5c-.18,15.949,6.682,33.515,20.979,53.7A174.561,174.561,0,0,0,271.87,474.1c16.61,14.821,37.648,25.385,62.526,31.4a222.627,222.627,0,0,0,52.289,5.868q8.344-.007,16.972-.534Zm54.388-326.085C515.111,202.9,570.014,272.942,563.11,358.739a141.188,141.188,0,0,1-7.528,35.752c-8.3,23.466-23.977,45.714-43.783,64.284-30.292,28.408-70.241,48.21-108.23,50.634-38.408,2.347-92.27-2.06-130.737-36.383a172.8,172.8,0,0,1-25.754-29.471c-14.115-19.929-20.891-37.217-20.718-52.854.185-16.363,10.727-32.09,28.207-42.072,11.082-6.37,23.2-9.129,36.022-12.052,18.206-4.146,36.864-8.4,53.013-23.538a89.936,89.936,0,0,0,16.782-21.892,51.456,51.456,0,0,0,6.289-20.227c.111-1.13.22-2.26.33-3.459,1.171-12.538,2.636-28.143,13.847-53.163a64.112,64.112,0,0,1,14.35-20.866c9.452-8.863,21.4-13.347,35.578-13.347a90.325,90.325,0,0,1,27.269,4.671ZM416.391,494.484a133.49,133.49,0,0,0,39.931-9.524,176.222,176.222,0,0,0,38.7-21.484,179.054,179.054,0,0,0,16.986-14.049c17.325-16.244,30.316-35.124,37.374-54.614a127.008,127.008,0,0,0,6.878-31.1,153.417,153.417,0,0,0-23.537-97.458,139.628,139.628,0,0,0-31.155-34.531,111.924,111.924,0,0,0-38.694-20.074c-15.68-4.418-29.359-4.487-40.655-.2-11.726,4.448-20.832,13.566-27.063,27.1-10.1,21.939-11.685,35.506-12.959,46.408q-.123,1.045-.244,2.065a44.456,44.456,0,0,1-5.594,16.574c-15.965,27.965-37.59,33.348-58.5,38.555-11.159,2.777-21.7,5.4-31.331,11.232a55.351,55.351,0,0,0-16.958,15.563,38.649,38.649,0,0,0-7.327,22.024c-.1,13.785,5.785,28.911,18,46.243a149.392,149.392,0,0,0,22.3,25.581c14.388,12.88,32.563,22.038,54.02,27.224a189.188,189.188,0,0,0,44.4,4.985Q408.541,495,416.391,494.484ZM462.48,213.028c51.1,14.4,99.617,74.645,92.348,150.544a125.546,125.546,0,0,1-6.8,30.751c-7.157,19.768-20.51,38.563-37.354,54.357-26.358,24.715-61.26,42.087-94.375,44.369-33.069,2.163-79.483-1.518-112.79-31.336a147.909,147.909,0,0,1-22.088-25.339c-12.037-17.078-17.838-31.93-17.736-45.407.1-13.968,8.921-27.563,23.587-36.364,9.445-5.717,19.884-8.317,30.936-11.067,10.47-2.608,21.3-5.3,31.483-10.89,11.5-6.313,20.638-15.586,27.924-28.349a45.9,45.9,0,0,0,5.772-17.117c.082-.68.162-1.37.244-2.07,1.262-10.8,2.832-24.242,12.836-45.973A55.242,55.242,0,0,1,408.641,221.7c8.461-7.933,19.261-11.953,32.126-11.953a80.426,80.426,0,0,1,21.714,3.284Zm-33.353,265.1a115,115,0,0,0,33.958-8.2,151.466,151.466,0,0,0,32.766-18.158,154.178,154.178,0,0,0,14.913-12.3c14.328-13.434,25.113-28.913,31.064-44.818a111.181,111.181,0,0,0,6.15-26.093,127.642,127.642,0,0,0-2.722-45.113A122.976,122.976,0,0,0,528.5,284.848a112.538,112.538,0,0,0-27.192-28.915A93.226,93.226,0,0,0,467.256,239.9c-13.057-3.061-24.35-2.806-33.572.763-9.821,3.8-17.528,11.442-22.909,22.713-9.006,18.865-10.7,30.322-12.056,39.526l-.051.346a39.877,39.877,0,0,1-5.076,13.488c-13.226,22.647-30.993,27.6-48.176,32.393-9.372,2.613-18.226,5.082-26.217,10.244a47.43,47.43,0,0,0-13.757,13.333,33.249,33.249,0,0,0-5.876,18.535c-.029,11.623,4.883,24.308,15.017,38.783a124.427,124.427,0,0,0,18.638,21.452c12.176,10.949,27.49,18.713,45.514,23.071a154.717,154.717,0,0,0,36.346,4.1q6.9,0,14.046-.522ZM546.547,368.406a109.712,109.712,0,0,1-6.07,25.757c-6.029,16.121-17.07,31.5-30.959,44.522-22.424,21.027-52.28,35.936-80.494,38.012-27.67,2.036-66.583-.872-94.843-26.285a123.115,123.115,0,0,1-18.42-21.208c-9.957-14.223-14.79-26.639-14.759-37.957.027-11.541,7.121-23.005,18.976-30.663,7.806-5.043,16.558-7.483,25.821-10.067,8.606-2.4,17.5-4.881,25.906-9.641,9.51-5.388,17.075-13.046,23.127-23.412a41.3,41.3,0,0,0,5.257-14l.053-.346c1.343-9.111,3.016-20.45,11.934-39.118,10.13-21.219,28.586-28.854,54.853-22.693C511.114,251.67,554.122,303.211,546.547,368.406ZM466.924,241.3l.165-.7ZM441.863,461.775a97.138,97.138,0,0,0,27.98-6.906,127.208,127.208,0,0,0,26.835-14.821A129.051,129.051,0,0,0,509.6,429.441c11.294-10.591,19.847-22.634,24.666-34.924a95.157,95.157,0,0,0,5.424-21.08c3.653-25.226-1.786-50.088-15.31-70.007a86.166,86.166,0,0,0-23.236-23.3,75.431,75.431,0,0,0-29.522-11.963c-10.519-1.8-19.166-1.251-26.438,1.666a32.507,32.507,0,0,0-10.506,6.819,42.476,42.476,0,0,0-8.286,11.561c-7.52,14.94-9.628,23.974-11.013,31.268-.69,3.632-3.148,8.079-4.558,10.407-10.455,17.3-24.325,21.787-37.74,26.131-7.639,2.475-14.853,4.811-21.223,9.368A39.307,39.307,0,0,0,341.3,376.478a28.042,28.042,0,0,0-4.418,15.052c.048,9.465,3.985,19.709,12.035,31.32a99.707,99.707,0,0,0,14.969,17.323c9.957,9.01,22.408,15.366,37.013,18.89a121.8,121.8,0,0,0,28.578,3.232q6.072,0,12.383-.52Zm96.407-88.541a93.909,93.909,0,0,1-5.339,20.76c-4.875,12.434-13.577,24.354-24.484,34.584-18.493,17.343-43.339,29.833-66.7,31.764-22.331,1.848-53.8-.335-76.89-21.233A98.355,98.355,0,0,1,350.1,422.032c-7.878-11.365-11.733-21.345-11.779-30.51-.052-9.3,5.187-18.4,14.372-24.967,6.19-4.427,13.3-6.73,20.828-9.168,6.718-2.175,13.664-4.425,20.267-8.347a52.1,52.1,0,0,0,18.262-18.414c1.456-2.41,4.011-7.029,4.741-10.883,1.367-7.2,3.448-16.116,10.885-30.891,8.454-16.8,22.34-22.921,43.7-19.274C509.814,276.141,546.314,317.636,538.27,373.233ZM471.38,269.58l.122-.708ZM454.6,445.419c14.012-1.361,29.252-7.435,42.909-17.1a103.989,103.989,0,0,0,11.017-8.969c8.225-7.713,14.512-16.3,18.18-24.975a78.756,78.756,0,0,0,4.7-16.063,84.422,84.422,0,0,0-1.306-37.227,69.555,69.555,0,0,0-15.794-29.417c-10.616-11.4-24.223-16.816-38.332-15.257a26.994,26.994,0,0,0-19.091,1.51c-5.952,2.878-10.952,7.962-14.863,15.112a116.323,116.323,0,0,0-7.179,16.016c-.932,2.466-1.735,4.6-2.685,6.5l-.067.135-.008.152c-.073,1.532-1.653,3.782-2.923,5.587-.4.573-.785,1.114-1.1,1.6-7.653,11.934-17.585,15.9-27.189,19.732-5.962,2.38-11.594,4.628-16.367,8.653a31.561,31.561,0,0,0-7.347,8.848,23.08,23.08,0,0,0-2.953,11.559c.131,7.21,3.177,15.235,9.055,23.852a74.855,74.855,0,0,0,11.3,13.193,63.63,63.63,0,0,0,28.509,14.712,89.421,89.421,0,0,0,20.917,2.37q5.192-.008,10.613-.531ZM513.25,312.648c14.9,16,21.315,41.063,16.741,65.4a77.425,77.425,0,0,1-4.608,15.768c-3.7,8.754-10.039,17.214-17.938,24.622-14.565,13.658-34.45,23.749-52.979,25.548-17.007,1.652-41.037.184-58.932-16.187a73.357,73.357,0,0,1-11.088-12.943c-5.717-8.382-8.68-16.143-8.8-23.069-.126-6.9,3.441-13.931,9.788-19.282,4.593-3.872,10.12-6.077,15.969-8.416a84.064,84.064,0,0,0,14.555-6.951A43.059,43.059,0,0,0,429.27,343.8c.293-.461.668-.991,1.061-1.551,1.412-2.006,3.007-4.271,3.175-6.19.952-1.936,1.757-4.055,2.68-6.5a114.994,114.994,0,0,1,7.1-15.833A38.661,38.661,0,0,1,450.635,304a25.34,25.34,0,0,1,25.086-6.166l.135.037.138-.016a41.794,41.794,0,0,1,4.708-.268c11.995,0,23.407,5.243,32.549,15.063Zm-45.9,116.413c10.1-1.239,21.107-5.668,31.008-12.472a78.492,78.492,0,0,0,9.2-7.386,53.443,53.443,0,0,0,11.574-14.951,62.3,62.3,0,0,0,4.44-40.039,44.933,44.933,0,0,0-12.131-22.069,30.751,30.751,0,0,0-31.178-7.468,18.775,18.775,0,0,0-11.939,2.438,31.26,31.26,0,0,0-10.673,10.724c-1.586,2.489-2.855,4.662-3.969,6.581a50.916,50.916,0,0,1-4.729,7.244l-.159.185-.012.245c-.028.481-1.519,1.977-2.156,2.62a14.635,14.635,0,0,0-1.324,1.434c-4.759,6.552-10.637,9.766-16.323,12.874-4.46,2.437-8.67,4.74-11.875,8.461-2.7,3.136-5.862,8.221-5.584,14.634.22,5.108,2.258,10.616,6.065,16.371a50.485,50.485,0,0,0,7.639,9.066,43.852,43.852,0,0,0,20.01,10.531,57.864,57.864,0,0,0,13.458,1.523,71.34,71.34,0,0,0,8.655-.544Zm43.1-95.879c11.775,11.294,16.2,30.79,11.269,49.664a58.27,58.27,0,0,1-3.874,10.777c-7.947,16.3-30.677,31.556-50.665,34.01-11.7,1.434-28.3.667-40.966-11.135a49.245,49.245,0,0,1-7.419-8.809c-3.661-5.534-5.622-10.8-5.829-15.64-.256-5.944,2.709-10.694,5.238-13.633,3.032-3.523,7.133-5.765,11.473-8.138,5.555-3.035,11.851-6.478,16.8-13.291a14.429,14.429,0,0,1,1.18-1.264c1.382-1.391,2.335-2.405,2.535-3.295a53.112,53.112,0,0,0,4.742-7.292c1.112-1.909,2.371-4.072,3.94-6.532a35.364,35.364,0,0,1,5.559-6.83c4.768-4.471,10.2-6.453,15.8-5.66l.157.023.152-.046a32.3,32.3,0,0,1,9.411-1.449,29.2,29.2,0,0,1,20.5,8.539Zm-33.656,79.971c8.443-.761,16.132-4.457,21.093-7.424a59.032,59.032,0,0,0,9.849-7.327,29.274,29.274,0,0,0,3.787-4.2,31.005,31.005,0,0,0,3.273-6.047,36.434,36.434,0,0,0,2.62-20.033,24.628,24.628,0,0,0-7.8-14.743,18.157,18.157,0,0,0-11.212-4.424c-4.526-.18-9.252,1.2-14.041,4.11-2.929,1.777-6.629,4.974-11.007,9.509a22.95,22.95,0,0,1-7.428,5.153l-3.1,1.343a23.754,23.754,0,0,0-9.1,6.951,22.955,22.955,0,0,0-4.655,10.091,21.114,21.114,0,0,0,.628,10.337,23.6,23.6,0,0,0,6.187,9.791,24.71,24.71,0,0,0,17.879,7.058q1.485,0,3.027-.138Zm31.887-58.688c8.078,6.935,10.047,20.561,4.789,33.134a29.6,29.6,0,0,1-3.115,5.766c-4.783,6.694-19.531,17.083-33.688,18.358-7.945.715-14.6-1.478-19.768-6.521-5.406-5.272-7.683-11.96-6.406-18.838a22.111,22.111,0,0,1,12.91-15.982l3.107-1.342a24.4,24.4,0,0,0,7.891-5.476c1.363-1.409,2.6-2.628,3.72-3.678a44.446,44.446,0,0,1,7-5.6,24.416,24.416,0,0,1,12.556-3.915,16.579,16.579,0,0,1,11.007,4.09Z" transform="translate(-1.156 531.714) rotate(-60)" fill="url(#linear-gradient)"/>
</svg>
