<svg id="Earth" xmlns="http://www.w3.org/2000/svg" width="127.131" height="156.213" viewBox="0 0 127.131 156.213">
  <path id="Shape" d="M126.767,61.784A54.479,54.479,0,0,1,120.39,87.5a55.664,55.664,0,0,1-19.132,20.6,54.816,54.816,0,1,1-45.9-98.59,54.93,54.93,0,0,1,70.466,41.924A66.826,66.826,0,0,1,126.767,61.784Z" transform="translate(0.364 0.126)" fill="#ff6464" opacity="0.797"/>
  <path id="Shape-2" data-name="Shape" d="M126.422,59.855a54.479,54.479,0,0,1-6.377,25.719,55.664,55.664,0,0,1-19.132,20.6A54.815,54.815,0,0,1,24.8,88.292a68.868,68.868,0,0,0,34.5,9.2A69.428,69.428,0,0,0,96.416,86.724a71.036,71.036,0,0,0,24.255-26.137,70.279,70.279,0,0,0,4.7-11.187A58.109,58.109,0,0,1,126.422,59.855Z" transform="translate(0.71 2.055)" fill="#ff6464"/>
  <path id="Shape-3" data-name="Shape" d="M72.748,134.442A72.328,72.328,0,0,1,34.483.723,3.69,3.69,0,0,1,39.5,1.874a3.69,3.69,0,0,1-1.15,5.018,65.038,65.038,0,0,0,34.4,120.231,64.592,64.592,0,0,0,26.242-5.541,3.652,3.652,0,1,1,2.927,6.691A71.6,71.6,0,0,1,72.748,134.442Z" transform="translate(-0.4 -0.184)" fill="#07284f"/>
  <path id="Shape-4" data-name="Shape" d="M69.859,141.778a3.7,3.7,0,0,1-3.659-3.659v-12.86a3.659,3.659,0,1,1,7.318,0v12.86A3.7,3.7,0,0,1,69.859,141.778Z" transform="translate(2.593 5.339)" fill="#07284f"/>
  <path id="Shape-5" data-name="Shape" d="M54.064,138.141a6.66,6.66,0,0,0-3.346,3.973L48,150.164H92.329l-2.718-8.05a6.966,6.966,0,0,0-6.691-4.809l-25.51-.1A12.258,12.258,0,0,0,54.064,138.141Z" transform="translate(1.765 6.049)" fill="#07284f" opacity="0.797"/>
  <path id="Shape-6" data-name="Shape" d="M82.515,59.688c-5.855,8.05-9.618,24.046-16,20.805S56.378,64.5,56.9,53.206,52.614,40.347,46.237,32.4c-5.541-7-4.287-8.259,8.05-22.792a55.2,55.2,0,0,1,40.774,3.136c0,7,.732,15.578,3.555,21.851C102.9,44.11,88.475,51.638,82.515,59.688Z" transform="translate(1.542 0.131)" fill="#56616b"/>
  <path id="Shape-7" data-name="Shape" d="M115.9,84.4a.588.588,0,0,1,.523.941,54.967,54.967,0,0,1-18.4,19.237c-.1.1-1.464-.941-1.673-1.045-.523-.314-1.045-.732-1.568-1.045-.941-.627-1.882-1.359-2.823-2.091a25.071,25.071,0,0,1-4.077-4.077c-1.777-2.4-2.509-5.227-1.255-8.05h0a4.084,4.084,0,0,1,3.45-2.3Z" transform="translate(3.494 3.647)" fill="#56616b"/>
</svg>
