<svg xmlns="http://www.w3.org/2000/svg" width="1208.654" height="975.668" viewBox="0 0 1208.654 975.668">
  <g id="undraw_Waiting__for_you_ldha" transform="translate(0 0)">
    <ellipse id="Ellipse_155" data-name="Ellipse 155" cx="286.617" cy="10.236" rx="286.617" ry="10.236" transform="translate(288.627 930.89)" fill="#3f3d56"/>
    <circle id="Ellipse_156" data-name="Ellipse 156" cx="102.557" cy="102.557" r="102.557" transform="translate(339.078 278.626)" fill="#ff6584"/>
    <ellipse id="Ellipse_157" data-name="Ellipse 157" cx="86.437" cy="7.968" rx="86.437" ry="7.968" transform="translate(234.366 898.339)" fill="#3f3d56"/>
    <path id="Path_1760" data-name="Path 1760" d="M550.509,965.8S622.25,774.49,582.7,656.762s-70.821-113.13-70.821-113.13-53.346-13.8-119.568,26.673-83.7,52.426-121.407,35.87-45.068-42.309-137.043-39.549c0,0,48.747-26.673,96.574-2.759s80.018,36.79,128.765,0,115.889-84.617,181.191-56.1c0,0-47.827-46.907-63.463-46.907S387.713,453.5,363.8,428.663c0,0-34.031-23.914-94.734,34.951s-45.988,58.864-100.253,54.265-96.574-31.272-96.574-31.272,63.463,25.753,102.092,12.876,71.741-61.623,105.771-78.179,54.265-38.63,100.253-14.716c0,0-19.315-79.1-56.1-72.66s17.475-18.4,17.475-18.4S331.608,181.25,312.294,172.052s-7.358-33.111-43.228-37.71c0,0,44.148-5.519,52.426,24.833s65.3,194.068,65.3,194.068,34.951,69.9,73.58,53.346-14.716-109.451-14.716-109.451l-66.222-30.352s49.667-1.84,80.018,26.673,32.191,120.488,32.191,120.488,76.339,11.037,94.734,52.426c0,0,11.957-36.79-11.037-58.864-5.748-5.518-11.784-15.118-17.6-26.414-22.258-43.2-29.809-92.438-22.807-140.525,3.426-23.532,5.535-46.54,1.782-51.962-8.278-11.957-43.228-85.537-45.988-104.852s2.759-59.784,2.759-59.784.92,49.667,11.957,65.3S547.75,182.17,547.75,182.17s0,97.494,25.753,145.321,75.42,101.173,72.66,136.123v20.235s55.185-52.426,51.506-69.9-8.278-58.864-43.228-83.7S596.5,265.867,621.33,208.842,646.163,141.7,646.163,141.7l-16.555,70.821s-9.2,63.463,16.555,85.537S705.947,360.6,705.947,360.6l-7.358-132.444L722.5,280.583s51.506-66.222,112.21-88.3,98.413-99.333,98.413-99.333l51.506-40.469-42.309,50.586s-12.877,59.784-85.537,102.092S737.219,310.015,734.46,348.645s-5.519,72.66-5.519,72.66,136.123-4.6,166.475-64.383,33.111-178.432,62.543-197.747,84.617-43.228,84.617-43.228l-61.623,50.586s-12.876,41.389-10.117,70.821S950.6,294.379,950.6,294.379l-17.475,51.506-19.315,44.148s79.1,1.839,120.488,48.747,144.4,60.7,144.4,60.7l-57.944,15.636s-55.185-18.4-107.611-52.426-46.907-64.383-112.21-30.352-154.518,62.543-154.518,62.543,51.506-23.914,144.4,34.031S844.83,518.8,803.441,540.873s-60.7-5.519-77.259,49.667-46.907,206.024-11.957,290.642L749.176,965.8Z" transform="translate(-72.238 -23.972)" fill="#3f3d56"/>
    <path id="Path_1761" data-name="Path 1761" d="M812.019,345.27c-24.659,48.57-119.132,60.716-153.7,63.563-.97,12.468-1.609,20.353-1.609,20.353s136.123-4.6,166.475-64.383,33.111-178.432,62.543-197.747c3.121-2.048,6.535-4.149,10.139-6.267,1.011-3.712,1.693-5.909,1.693-5.909l61.623-50.586s-55.185,23.914-84.617,43.228S842.371,285.486,812.019,345.27Z" transform="translate(12.554 -12.319)" opacity="0.1"/>
    <path id="Path_1762" data-name="Path 1762" d="M654.224,260.391c-.2,22.645-3.14,36.113-3.14,36.113s51.484-66.194,112.172-88.282c3.587-2.269,7.225-4.5,10.95-6.672,72.66-42.309,85.537-102.093,85.537-102.093l42.309-50.586L850.545,89.341s-37.71,77.259-98.413,99.333C710.753,203.721,673.655,239.275,654.224,260.391Z" transform="translate(11.738 -20.36)" opacity="0.1"/>
    <path id="Path_1763" data-name="Path 1763" d="M584.479,439.366V459.6s55.185-52.426,51.506-69.9c-2.813-13.365-6.182-40.71-23.236-63.946,7.687,17.56,10.027,34.688,12.074,44.412,2.638,12.531-24.992,43.033-40.837,59.29A41.95,41.95,0,0,1,584.479,439.366Z" transform="translate(2.004 19.809)" opacity="0.1"/>
    <path id="Path_1764" data-name="Path 1764" d="M519.769,303.705c.437.932.888,1.849,1.365,2.737,14.1,26.193,35.368,54.036,51.277,79.612C559.554,360.726,537.177,331.763,519.769,303.705Z" transform="translate(-7.312 16.61)" opacity="0.1"/>
    <path id="Path_1765" data-name="Path 1765" d="M561.11,289.092c-7.417-18.173-8.639-39.8-.118-65.137a198.786,198.786,0,0,1,1.586-27.473L577.06,134.53c-2.67,8.934-8.779,26.17-22.76,58.273C536.6,233.445,543.207,265.2,561.11,289.092Z" transform="translate(-3.813 -7.933)" opacity="0.1"/>
    <path id="Path_1766" data-name="Path 1766" d="M927.48,392.178c-28.7-32.53-75.536-43.383-101.552-46.981l-7.774,17.768s79.1,1.84,120.487,48.747c22.952,26.012,64.849,41.838,97.626,50.78l35.613-9.61S968.869,439.086,927.48,392.178Z" transform="translate(35.976 22.63)" opacity="0.1"/>
    <path id="Path_1767" data-name="Path 1767" d="M431.581,389.124c38.63-16.556-14.716-109.45-14.716-109.45L415.406,279c13.3,28.06,32.587,78.768,5.013,90.585-25.8,11.058-49.96-16.453-63.16-35.945.479,1.379.742,2.134.742,2.134S392.952,405.68,431.581,389.124Z" transform="translate(-30.889 13.027)" opacity="0.1"/>
    <path id="Path_1768" data-name="Path 1768" d="M544.332,436.255s11.64-35.879-10.227-58.032c5.362,19.084-.935,38.5-.935,38.5-14.23-32.017-63.126-45.869-84.543-50.5.831,10.66.971,17.609.971,17.609S525.937,394.866,544.332,436.255Z" transform="translate(-17.633 25.68)" opacity="0.1"/>
    <path id="Path_1769" data-name="Path 1769" d="M572.858,135.653c2.073-6.935,2.073-8.869,2.073-8.869Z" transform="translate(0.39 -9.057)" opacity="0.1"/>
    <path id="Path_1770" data-name="Path 1770" d="M186.153,475.157c.186-.06.374-.114.558-.176,38.63-12.877,71.741-61.623,105.772-78.179s54.265-38.63,100.253-14.716c0,0-8.045-32.932-23.636-54.568a214.576,214.576,0,0,1,12.474,35.034c-45.988-23.914-66.222-1.84-100.253,14.716s-67.142,65.3-105.772,78.179S73.457,442.57,73.457,442.57s42.309,26.673,96.574,31.272C176.238,474.368,181.535,474.832,186.153,475.157Z" transform="translate(-72.061 20.065)" opacity="0.1"/>
    <path id="Path_1771" data-name="Path 1771" d="M509.014,893.777c16.853-51.661,57.381-194.518,25.472-289.5-13.78-41.02-26.553-67.177-37.35-83.864,8.075,15.8,16.9,36.692,26.188,64.33,39.549,117.728-32.191,309.037-32.191,309.037Z" transform="translate(-11.467 48.049)" opacity="0.1"/>
    <path id="Path_1772" data-name="Path 1772" d="M202.613,513.827a93.888,93.888,0,0,1,32.4,9.377c37.772,18.886,65.8,30.864,99.923,16.953,7.774-4.107,16.469-9.188,26.5-15.238.782-.57,1.556-1.118,2.346-1.715,48.747-36.79,115.889-84.617,181.191-56.1,0,0-13.2-12.94-27.992-25.228-59.854-14.683-119.795,28.164-164.361,61.8-48.747,36.79-80.938,23.913-128.765,0s-96.574,2.759-96.574,2.759C162.81,505.363,185.709,508.556,202.613,513.827Z" transform="translate(-64.254 36.224)" opacity="0.1"/>
    <path id="Path_1773" data-name="Path 1773" d="M274.6,145.494a24.059,24.059,0,0,0,3.782,4.835A27.14,27.14,0,0,0,274.6,145.494Z" transform="translate(-42.881 -6.342)" opacity="0.1"/>
    <path id="Path_1774" data-name="Path 1774" d="M432.914,282.233a44.777,44.777,0,0,1,3.987,4.3c-4.029-9.685-9-18.06-15.15-23.833-30.352-28.512-80.018-26.673-80.018-26.673l62.287,28.548a88.949,88.949,0,0,1,28.894,17.659Z" transform="translate(-33.141 6.788)" opacity="0.1"/>
    <path id="Path_1775" data-name="Path 1775" d="M485.009,188.608c3.754,5.422,1.645,28.43-1.782,51.962-7,48.087.549,97.328,22.807,140.525a163.679,163.679,0,0,0,9.8,16.823c-21.194-42.541-28.3-90.729-21.445-137.814,3.427-23.532,5.536-46.54,1.782-51.962-8.278-11.957-43.228-85.537-45.988-104.852a133.857,133.857,0,0,1-.576-22.569c-7.145-20.271-7.827-56.749-7.827-56.749s-5.518,40.469-2.759,59.784S476.731,176.651,485.009,188.608Z" transform="translate(-19.139 -23.972)" opacity="0.1"/>
    <path id="Path_1776" data-name="Path 1776" d="M554.651,57.377a26.309,26.309,0,0,0-1.67-5.292S553.688,54.07,554.651,57.377Z" transform="translate(-2.494 -19.894)" opacity="0.1"/>
    <path id="Path_1777" data-name="Path 1777" d="M274.421,140.153c8.106.992,17.43,3.479,24.543,9.247-.464-1.569-.869-2.976-1.191-4.158-8.278-30.352-52.426-24.833-52.426-24.833C265.3,122.967,270.451,131.5,274.421,140.153Z" transform="translate(-47.124 -10.039)" opacity="0.1"/>
    <path id="Path_1778" data-name="Path 1778" d="M470.627,818.3c6.558,24.242,29.02,39.255,29.02,39.255s11.83-24.29,5.272-48.531-29.02-39.255-29.02-39.255S464.069,794.061,470.627,818.3Z" transform="translate(-14.729 84.225)" fill="#3f3d56"/>
    <path id="Path_1779" data-name="Path 1779" d="M484.489,810.01c17.995,17.517,20.193,44.445,20.193,44.445s-26.977-1.473-44.972-18.99-20.193-44.445-20.193-44.445S466.494,792.493,484.489,810.01Z" transform="translate(-18.955 87.308)" fill="#ff6464"/>
    <path id="Path_1780" data-name="Path 1780" d="M431.211,239.5c-1.564,25.064-20.56,44.276-20.56,44.276s-16.459-21.425-14.9-46.489,20.56-44.276,20.56-44.276S432.775,214.438,431.211,239.5Z" transform="translate(-25.319 0.552)" fill="#ff6464"/>
    <path id="Path_1781" data-name="Path 1781" d="M259.852,96.483c21.243,13.393,28.992,39.276,28.992,39.276s-26.694,4.168-47.937-9.225-28.992-39.276-28.992-39.276S238.609,83.09,259.852,96.483Z" transform="translate(-51.975 -14.88)" fill="#ff6464"/>
    <path id="Path_1782" data-name="Path 1782" d="M218.423,363.337c21.243,13.393,28.992,39.276,28.992,39.276s-26.694,4.168-47.937-9.225-28.992-39.276-28.992-39.276S197.18,349.944,218.423,363.337Z" transform="translate(-57.985 23.834)" fill="#ff6464"/>
    <path id="Path_1783" data-name="Path 1783" d="M317.122,465.692c21.243,13.393,28.992,39.276,28.992,39.276s-26.694,4.168-47.937-9.225-28.992-39.276-28.992-39.276S295.879,452.3,317.122,465.692Z" transform="translate(-43.666 38.683)" fill="#ff6464"/>
    <path id="Path_1784" data-name="Path 1784" d="M594.093,140.393c-6.406,24.282-28.774,39.435-28.774,39.435s-11.981-24.216-5.575-48.5S588.518,91.9,588.518,91.9,600.5,116.111,594.093,140.393Z" transform="translate(-1.786 -14.118)" fill="#ff6464"/>
    <path id="Path_1785" data-name="Path 1785" d="M770.617,156.954c-7.53,23.957-30.579,38.053-30.579,38.053s-10.841-24.747-3.311-48.7,30.579-38.053,30.579-38.053S778.146,133,770.617,156.954Z" transform="translate(23.777 -11.746)" fill="#ff6464"/>
    <path id="Path_1786" data-name="Path 1786" d="M961.819,389.7c-13.64,21.086-39.611,28.532-39.611,28.532s-3.857-26.741,9.783-47.827S971.6,341.87,971.6,341.87,975.458,368.61,961.819,389.7Z" transform="translate(50.999 22.147)" fill="#ff6464"/>
    <path id="Path_1787" data-name="Path 1787" d="M661.437,534.563s-2.191,8.033,2.191,10.954,5.842,16.8,5.842,16.8l-8.764,24.1-23.37,4.382L628.574,574v-24.83s2.921-12.415,2.191-16.067S661.437,534.563,661.437,534.563Z" transform="translate(8.473 49.699)" fill="#ffb9b9"/>
    <path id="Path_1788" data-name="Path 1788" d="M661.437,534.563s-2.191,8.033,2.191,10.954,5.842,16.8,5.842,16.8l-8.764,24.1-23.37,4.382L628.574,574v-24.83s2.921-12.415,2.191-16.067S661.437,534.563,661.437,534.563Z" transform="translate(8.473 49.699)" opacity="0.2"/>
    <path id="Path_1789" data-name="Path 1789" d="M686.083,654.75l18.988,3.651s1.461,21.179,0,26.291-2.921,10.954-1.461,12.415-6.573,38.706-5.842,40.9,2.191,8.764,1.461,13.145-2.921,2.921-1.461,7.3,2.921,5.112,1.461,8.033-8.764,73.76-10.954,74.49-21.909,1.461-21.909,0,6.573-12.415,4.382-15.336.73-52.581.73-54.772,4.382-5.842,2.191-7.3-3.651-2.921-2.921-5.112,2.191-2.921.73-5.112-1.461-46.009-6.573-47.469c0,0-6.573,32.133-4.382,40.166s-.73,10.954-.73,10.954l10.224,8.764-13.876,26.291-14.606-16.8s0-4.382-2.921-5.112-4.382-1.461-4.382-3.651-5.112-16.067-5.112-16.067-14.606-46.009-7.3-69.378,10.116-22.6,10.116-22.6Z" transform="translate(7.196 67.538)" fill="#2f2e41"/>
    <path id="Path_1790" data-name="Path 1790" d="M617.128,762.8l8.034,8.763-2.921,24.1h-6.573L605.444,773.02Z" transform="translate(87.835 110.663)" fill="#ffb9b9"/>
    <path id="Path_1791" data-name="Path 1791" d="M694.493,802.81s-2.921,6.573-5.112,5.112-2.917-3.651-6.205-3.651-6.21.73-5.479,2.191,9.494,17.527,9.494,17.527a20.643,20.643,0,0,1,0,17.527c-4.382,9.494,11.685,14.606,14.606,4.382s3.651-21.909,2.921-26.291,3.651-27.021,3.651-27.021-11.8-5.439-15.393-5.641C692.976,786.945,695.954,799.889,694.493,802.81Z" transform="translate(15.583 86.717)" fill="#2f2e41"/>
    <path id="Path_1792" data-name="Path 1792" d="M677.383,814.831l2.921,8.764s0,8.764,2.921,13.145,5.842,13.876-5.842,14.606-16.8-3.651-16.8-3.651,2.191-5.842,0-8.033,0-6.573,0-6.573l2.191-17.527Z" transform="translate(12.976 90.762)" fill="#2f2e41"/>
    <path id="Path_1793" data-name="Path 1793" d="M659.114,751.054h6.573l32.863,43.088s-5.842,13.876-14.606,15.336c0,0-1.461-.73-8.033-5.112s-24.1-26.291-24.1-26.291l-2.191-12.415Z" transform="translate(11.526 81.51)" fill="#2f2e41"/>
    <circle id="Ellipse_158" data-name="Ellipse 158" cx="23.369" cy="23.369" r="23.369" transform="translate(631.204 547.017)" fill="#ffb9b9"/>
    <path id="Path_1794" data-name="Path 1794" d="M676.618,548.612l-7.3-2.921s-.73,25.56-14.606,25.56S626.227,567.6,626.227,560.3s-11.685,13.145-11.685,13.145,10.954,73.03,10.224,73.76,8.033,39.436,8.033,39.436,37.245,1.461,49.66-3.651,16.067-14.606,16.067-14.606l-5.112-64.266-10.224-49.66Z" transform="translate(6.437 51.717)" fill="#ff6464"/>
    <path id="Path_1795" data-name="Path 1795" d="M657.915,542.667s2.917-2.921,7.3,0,31.4,9.494,31.4,11.685V582.1s.73,4.382-1.461,7.3-7.3,13.876-4.382,18.988,13.876,64.266,11.685,71.569-8.033,13.876-8.033,13.876-31.4-66.457-31.4-85.445.3-42.282.3-42.282Z" transform="translate(12.729 51.09)" fill="#56616b"/>
    <path id="Path_1796" data-name="Path 1796" d="M686.436,553.344h6.573s24.83,47.469,24.83,56.963-16.067,62.075-17.527,62.806-5.842-8.033-5.842-8.033l-3.651-29.212s7.3-17.527,5.112-20.448-13.145-25.56-13.145-25.56Z" transform="translate(16.337 52.827)" fill="#56616b"/>
    <path id="Path_1797" data-name="Path 1797" d="M633.82,542.5s-8.383,5.842-9.844,8.033-23.369,14.606-24.1,17.527,16.8,27.751,16.8,27.751,7.3,40.9,7.3,43.818,2.921,52.581,2.921,52.581,29.942,8.764,29.942,3.651.73-78.142-3.651-94.208S633.82,542.5,633.82,542.5Z" transform="translate(4.306 51.254)" fill="#56616b"/>
    <path id="Path_1798" data-name="Path 1798" d="M634.971,674.521s24.83,33.594,11.685,32.863-21.909-29.212-21.909-29.212Z" transform="translate(7.917 70.407)" fill="#ffb9b9"/>
    <path id="Path_1799" data-name="Path 1799" d="M609.185,562.911l-8.764,2.191s-7.3,64.266-2.921,73.03,27.751,65.727,27.751,63.536,20.558-6.1,19.773-8.16-5.167-10.828-6.627-13.749-3.651-6.573-2.921-10.224-8.033-19.281-8.033-19.281-2.191-9.2-2.921-13.582-7.3-52.581-7.3-52.581Z" transform="translate(3.762 54.215)" fill="#56616b"/>
    <path id="Path_1800" data-name="Path 1800" d="M670.887,509.157a5.807,5.807,0,0,0-2.644-3.249,12.444,12.444,0,0,0-.558-4.287c-1.455-4.048-4.9-3.816-8.152-5.605-1.411-.776-1.324-1.463-2.058-2.738a10.482,10.482,0,0,0-4.16-4,15.472,15.472,0,0,0-6.756-2.7c-5.186-.333-9.162,4.258-14.119,5.732-2.185.649-4.532.676-6.729,1.29s-4.388,2.08-4.715,4.214c-.151.985.115,2-.038,2.981-.3,1.958-2.13,3.329-3.351,4.94-2.7,3.561-2.393,8.592-.232,12.467a17.431,17.431,0,0,0,1.558,2.295,13.506,13.506,0,0,0,1.645,5.242c2.161,3.875,5.878,6.77,9.762,9.176a20.494,20.494,0,0,1-.576-3.913,2.553,2.553,0,0,1,.177-1.3c.432-.851,1.575-1.077,2.447-1.543a5.7,5.7,0,0,0,2.565-5.055c.052-1.953-.388-3.91-.17-5.853a3.125,3.125,0,0,1,1.163-2.353,4.221,4.221,0,0,1,2.193-.492c3.7-.142,7.561-.206,10.823-1.852a16.444,16.444,0,0,1,3.369-1.6c2.772-.68,5.6,1.148,7.2,3.386s2.394,4.9,3.868,7.213,4.02,4.374,6.87,4.1a1.173,1.173,0,0,0,.851-.356,1.143,1.143,0,0,0,.157-.682l.159-10.253a14.626,14.626,0,0,0-.549-5.211Z" transform="translate(6.6 43.139)" fill="#2f2e41"/>
    <ellipse id="Ellipse_159" data-name="Ellipse 159" cx="143.681" cy="10.236" rx="143.681" ry="10.236" transform="translate(921.293 955.196)" fill="#3f3d56"/>
    <path id="Path_1801" data-name="Path 1801" d="M962.612,846.137s-12.266,10.33-18.722,9.684-18.722-.646-13.558,6.456S956.8,873.252,965.84,873.9s29.052,1.291,27.761-2.582-2.583-21.95-7.747-23.242S962.612,846.137,962.612,846.137Z" transform="translate(52.071 95.304)" fill="#575a89"/>
    <path id="Path_1802" data-name="Path 1802" d="M1023.5,837.835s-9.039,13.246-15.431,14.359-18.207,4.41-11.324,9.862,28.445,3.458,37.325,1.65,28.33-6.564,26.045-9.948-8.387-20.449-13.708-20.3S1023.5,837.835,1023.5,837.835Z" transform="translate(61.583 93.464)" fill="#575a89"/>
    <path id="Path_1803" data-name="Path 1803" d="M952.935,673.381s-8.309,56.9-6.372,67.234,3.228,26.47,3.228,26.47-1.291,13.558,0,20.014,9.038,67.788,9.038,69.079-1.291,5.165,0,8.393,3.874.646,0,5.81-1.291,6.456-.646,6.456,25.824,2.582,27.115,0-.646-3.228,0-6.456,1.291-3.874,2.583-4.519,3.874.646,1.937-2.582-6.456-7.1-5.165-9.038-.646-16.14-.646-16.14-1.291-31.634-1.937-51,5.81-39.382,5.81-39.382a73.865,73.865,0,0,0,16.786,43.255c16.786,20.014,25.178,57.458,25.178,57.458s3.874,5.81,1.937,10.975-7.747,1.937-1.937,5.165,25.824-1.291,27.761-3.228-2.582-4.519-1.291-9.684,6.456-3.874,1.937-6.456-5.81-1.937-5.81-4.519-11.621-58.75-29.7-74.89l-1.291-58.75s16.14-41.318-.646-45.192S952.935,673.381,952.935,673.381Z" transform="translate(54.563 68.478)" fill="#2f2e41"/>
    <path id="Path_1804" data-name="Path 1804" d="M962.312,539.909s10.975,27.115,8.393,30.989,31.634-12.912,31.634-12.912-10.975-27.115-10.975-30.343S962.312,539.909,962.312,539.909Z" transform="translate(56.89 49.034)" fill="#ffcac6"/>
    <circle id="Ellipse_160" data-name="Ellipse 160" cx="23.887" cy="23.887" r="23.887" transform="translate(1003.385 547.948)" fill="#ffcac6"/>
    <path id="Path_1805" data-name="Path 1805" d="M1004,544.533s-16.786-1.937-25.178,8.393-9.684,12.912-9.684,12.912-20.014,32.28-16.14,48.42a46.689,46.689,0,0,1,2.583,4.519c1.291,2.582,1.291,38.736,0,44.546s-2.582,7.747-1.291,16.14-10.33,21.95,3.228,24.533,23.887.646,28.406-5.165.646-9.684,14.849-9.684a34.164,34.164,0,0,0,23.242-9.684s-7.1-7.747-4.519-9.038,0-4.519-1.291-7.747-1.291-5.81.646-5.81.646-1.291-.646-4.519,22.6-58.75,8.393-74.89-21.3-25.178-21.3-25.178S1007.872,542.6,1004,544.533Z" transform="translate(55.231 51.512)" fill="#ff6464"/>
    <path id="Path_1806" data-name="Path 1806" d="M968.512,598.063v28.406L947.853,694.9s-13.558,35.508,0,35.508,12.831-33.891,12.831-33.891l29.133-51.328s11.621-40.673,10.33-43.9S968.512,598.063,968.512,598.063Z" transform="translate(53.918 59.314)" fill="#ffcac6"/>
    <path id="Path_1807" data-name="Path 1807" d="M976.626,561.416s-19.368,7.747-14.2,28.406,0,20.014,0,20.014,26.47-2.582,34.862,3.228l1.937-7.747S1006.969,560.77,976.626,561.416Z" transform="translate(56.779 53.997)" fill="#ff6464"/>
    <path id="Path_1808" data-name="Path 1808" d="M963.707,510.066a9.531,9.531,0,0,1-8.953-1.393,7.212,7.212,0,0,1-2.035-8.514c1.236-2.426,3.88-3.757,6.416-4.75a59.628,59.628,0,0,1,17.475-3.946c2.856-.2,5.855-.171,8.4,1.134,1.261.646,2.356,1.577,3.605,2.246,2.3,1.23,4.969,1.5,7.451,2.294a18.648,18.648,0,0,1,11.4,10.476,22.461,22.461,0,0,1,1.4,5.2,28.966,28.966,0,0,1-1.506,14.5c-2.752,7.327-8.524,13.733-8.85,21.553-3.533-2.563-4.843-7.189-7.674-10.511a14.3,14.3,0,0,0-8.16-4.733,4.544,4.544,0,0,1-2.432-.887,3.916,3.916,0,0,1-.888-2.072l-2.417-11.413c-.492-2.323-1.114-4.855-3.023-6.267a9.147,9.147,0,0,0-3.94-1.388,61.8,61.8,0,0,0-10.093-.92" transform="translate(55.408 43.836)" fill="#2f2e41"/>
  </g>
</svg>
