<svg xmlns="http://www.w3.org/2000/svg" width="103.244" height="49.946" viewBox="0 0 103.244 49.946">
  <g id="uUk3jA.tif" transform="translate(-404.173 -276.976)">
    <g id="Group_129" data-name="Group 129" transform="translate(404.173 276.975)">
      <path id="Path_1810" data-name="Path 1810" d="M460.193,277.214c-.362.57-.569.955-.832,1.3-2.6,3.4-5.241,6.774-7.805,10.2a3.061,3.061,0,0,1-2.755,1.334c-5.092-.043-10.186-.057-15.277.021-4.552.07-8.574,1.557-11.486,5.184-5.038,6.277-2.169,15.106,5.8,17.751a21.822,21.822,0,0,0,6.216,1.067c5.718.151,11.443.032,17.164.105,1.5.019,2.082-.488,1.952-1.987a19.1,19.1,0,0,1,0-3.424c.147-1.564-.56-1.935-2-1.925-7.095.051-14.19.021-21.286.02h-2.071a5.271,5.271,0,0,1,.468-1.109c2.43-2.957,4.826-5.945,7.36-8.81a3.729,3.729,0,0,1,2.46-1.157c9.5-.08,19-.028,28.495-.072,1.428-.007,1.9.505,1.89,1.9q-.059,13.8-.009,27.59c0,1.064-.195,1.741-1.487,1.732-12.243-.084-24.506.268-36.723-.325-9.449-.459-17.434-4.619-22.59-12.949-7.379-11.921-2.7-26.974,10.168-33.137a34.921,34.921,0,0,1,15.083-3.458c8.525-.043,17.051-.03,25.577-.029C459,277.038,459.487,277.137,460.193,277.214Z" transform="translate(-404.173 -277.017)" fill="#fff"/>
      <path id="Path_1811" data-name="Path 1811" d="M569.768,289.879c.408-.688.615-1.131.905-1.511,2.638-3.444,5.258-6.9,7.97-10.287a2.922,2.922,0,0,1,1.962-1.04c5.889-.023,11.8-.223,17.662.2,7.879.572,14.943,3.394,20.239,9.526,8.848,10.243,6.665,25.958-4.632,34.058a32.447,32.447,0,0,1-18.447,6.015c-2.286.064-4.576-.03-6.862.045-1.371.045-1.783-.525-1.752-1.833.07-2.968.1-5.94-.006-8.905-.053-1.548.4-2.1,2.022-2.1a56.2,56.2,0,0,0,9.057-.442c4.94-.8,8.807-3.348,10.281-8.391,1.672-5.724-1.111-11.048-6.825-13.678a18.682,18.682,0,0,0-8.006-1.564q-10.637.027-21.275,0C571.4,289.979,570.746,289.924,569.768,289.879Z" transform="translate(-520.715 -276.975)" fill="#fff"/>
    </g>
  </g>
</svg>
