<svg xmlns="http://www.w3.org/2000/svg" width="117.8" height="148.3" viewBox="0 0 117.8 148.3">
  <g id="Page-1" transform="translate(-0.1 -0.3)">
    <g id="Enterprise_2">
      <path id="Shape" d="M54.5,27.1a2.006,2.006,0,0,1-2-2V2.3a2,2,0,0,1,4,0V25.1A2.006,2.006,0,0,1,54.5,27.1Z" fill="#07284f"/>
      <path id="Shape-2" data-name="Shape" d="M62.4,27.5a2.006,2.006,0,0,1-2-2V15a2,2,0,1,1,4,0V25.5A2.006,2.006,0,0,1,62.4,27.5Z" fill="#07284f"/>
      <rect id="Rectangle-path" width="67.7" height="124.1" transform="translate(0.1 24.5)" fill="#56616b"/>
      <path id="Rectangle-path-2" data-name="Rectangle-path" d="M0,0H27.3V101.2H0Z" transform="translate(67.8 47.4)" fill="#ff6464" opacity="0.804"/>
      <rect id="Rectangle-path-3" data-name="Rectangle-path" width="16.7" height="28.2" transform="translate(25.6 120.4)" fill="#07284f"/>
      <path id="Shape-3" data-name="Shape" d="M9.8,42.3V36H21.4V47.7H9.8v-.8" fill="#07284f"/>
      <rect id="Rectangle-path-4" data-name="Rectangle-path" width="11.7" height="11.7" transform="translate(28.3 36)" fill="#07284f"/>
      <rect id="Rectangle-path-5" data-name="Rectangle-path" width="11.7" height="11.7" transform="translate(46.9 36)" fill="#ff6464"/>
      <rect id="Rectangle-path-6" data-name="Rectangle-path" width="11.7" height="11.7" transform="translate(9.8 55.3)" fill="#ff6464"/>
      <path id="Shape-4" data-name="Shape" d="M40,62.5V67H28.3V55.3H40v1.9" fill="#ff6464"/>
      <rect id="Rectangle-path-7" data-name="Rectangle-path" width="11.7" height="11.7" transform="translate(46.9 55.3)" fill="#07284f"/>
      <rect id="Rectangle-path-8" data-name="Rectangle-path" width="11.7" height="11.7" transform="translate(9.8 74.7)" fill="#07284f"/>
      <rect id="Rectangle-path-9" data-name="Rectangle-path" width="11.7" height="11.7" transform="translate(28.3 74.7)" fill="#07284f"/>
      <rect id="Rectangle-path-10" data-name="Rectangle-path" width="11.7" height="11.7" transform="translate(46.9 74.7)" fill="#07284f"/>
      <rect id="Rectangle-path-11" data-name="Rectangle-path" width="11.7" height="11.7" transform="translate(9.8 94)" fill="#07284f"/>
      <rect id="Rectangle-path-12" data-name="Rectangle-path" width="11.7" height="11.7" transform="translate(28.3 94)" fill="#07284f"/>
      <path id="Shape-5" data-name="Shape" d="M56.8,94h1.8v11.7H46.9V94h2" fill="#ff6464"/>
      <path id="Shape-6" data-name="Shape" d="M85.7,55.3h1V67H75V55.3h5.2" fill="#07284f"/>
      <rect id="Rectangle-path-13" data-name="Rectangle-path" width="11.7" height="11.7" transform="translate(75 74.7)" fill="#07284f"/>
      <rect id="Rectangle-path-14" data-name="Rectangle-path" width="11.7" height="11.7" transform="translate(75 94)" fill="#07284f"/>
      <rect id="Rectangle-path-15" data-name="Rectangle-path" width="11.7" height="11.7" transform="translate(75 113.4)" fill="#07284f"/>
      <path id="Shape-7" data-name="Shape" d="M117.9,27.2a4.3,4.3,0,0,1-.7,2.5,4.081,4.081,0,0,1-3.4,1.7H95a4.146,4.146,0,0,1-1.6-.3,4.6,4.6,0,0,1-2-3.9v-.6a4.526,4.526,0,0,1,3.2-3.9v-.3a6.16,6.16,0,0,1,5.9-6.4,5.768,5.768,0,0,1,5,3,4.764,4.764,0,0,1,2.9-.9,5.433,5.433,0,0,1,5.2,4.4,4.332,4.332,0,0,1,3.9,2.7A4.767,4.767,0,0,1,117.9,27.2Z" fill="#56616b"/>
      <path id="Shape-8" data-name="Shape" d="M91.9,16.6a2.768,2.768,0,0,1-.3,1.3,2.227,2.227,0,0,1-1.7.9H80.3a1.884,1.884,0,0,1-.8-.2,2.328,2.328,0,0,1-1-2v-.3a2.281,2.281,0,0,1,1.6-2v-.1a3.214,3.214,0,0,1,3-3.3,3.11,3.11,0,0,1,2.6,1.5,2.456,2.456,0,0,1,1.5-.5,2.866,2.866,0,0,1,2.7,2.3,2.285,2.285,0,0,1,2,1.4A3.334,3.334,0,0,0,91.9,16.6Z" fill="#56616b"/>
    </g>
  </g>
</svg>
