<svg id="Page-1" xmlns="http://www.w3.org/2000/svg" width="121.967" height="80.876" viewBox="0 0 121.967 80.876">
  <g id="Pen_tool" transform="translate(0 0)">
    <path id="Shape" d="M57.5,38.951l.9-1.551" transform="translate(-10.673 -7.067)" fill="#fff"/>
    <path id="Shape-2" data-name="Shape" d="M70.46,14.307l-.49-.9a1.62,1.62,0,0,0-2.613-.327l-.163.163h0l-.163.163-.653,1.225-8,14.534-.163.327L52.006,40.762c-4.817,8.818-5.879,9.717-5.062,11.513.572,1.47,1.715,1.47,4.164,3.429h0A13.139,13.139,0,0,1,55.6,61.91h0a1.922,1.922,0,0,1,.163.653s.082.327.245.817c.163.653.327,2.2.49,3.756,0,.49.082,1.061.082,1.551l23.842-.735a2.778,2.778,0,0,1,.082-.817c.082-.817.163-1.715.163-2.041,0,0,.245-1.388.327-1.715V63.3l.245-1.143A13.706,13.706,0,0,1,83.36,57.5c2.368-3.266,4.981-3.756,5.879-4.736.082-.082.408-.408.408-.572a2.759,2.759,0,0,0,.327-.817h0C90.382,49.907,90.137,50.071,70.46,14.307ZM68.582,57.583A5.879,5.879,0,1,1,74.46,51.7,5.854,5.854,0,0,1,68.582,57.583Z" transform="translate(-8.69 -2.509)" fill="#07284f" opacity="0.498"/>
    <path id="Shape-3" data-name="Shape" d="M83.085,74.7c-.082.327-.327,1.715-.327,1.715-.082.408-.163,1.715-.245,2.858l-23.842.735A33.734,33.734,0,0,0,58.1,74.7Z" transform="translate(-10.783 -13.911)" fill="#ff6464"/>
    <path id="Shape-4" data-name="Shape" d="M74.883,14.3V42.14a2.041,2.041,0,0,1-4.083,0v-27.6l.653-1.225a.176.176,0,0,1,.163-.163h0l.163-.163a1.665,1.665,0,0,1,2.613.327Z" transform="translate(-13.113 -2.498)" fill="#07284f"/>
    <path id="Shape-5" data-name="Shape" d="M121.77,48.465,117.605,44.3a57.591,57.591,0,0,0-8.247-15.269A60.434,60.434,0,0,0,97.111,16.7,62.111,62.111,0,0,0,83.557,9.028h22.372a4.818,4.818,0,1,0,0-4.083H66.982c-.49-.082-1.061-.082-1.551-.163L61.511.862a2.07,2.07,0,0,0-2.939,0l-4,4.083H15.46a4.889,4.889,0,0,0-4.328-2.776,4.817,4.817,0,0,0,0,9.635,4.766,4.766,0,0,0,4.409-2.858H38.567a60.274,60.274,0,0,0-13.554,7.675A61.6,61.6,0,0,0,4.518,44.3l-4,4a1.184,1.184,0,0,0,0,1.715L6.07,55.569a1.228,1.228,0,0,0,.9.327,1.228,1.228,0,0,0,.9-.327l5.552-5.552a1.184,1.184,0,0,0,0-1.715L9.091,43.974a55.707,55.707,0,0,1,46.3-35.11l3.429,3.429a1.968,1.968,0,0,0,1.47.572,2.347,2.347,0,0,0,1.47-.572l3.429-3.429h1.8A55.661,55.661,0,0,1,113.36,44.056L109.114,48.3a1.184,1.184,0,0,0,0,1.715l5.552,5.552a1.4,1.4,0,0,0,1.8,0l5.552-5.552A1.626,1.626,0,0,0,121.77,48.465ZM108.95,5.272a2.259,2.259,0,0,1,1.306-.408,2.2,2.2,0,0,1,0,4.409,2.259,2.259,0,0,1-1.306-.408,2.13,2.13,0,0,1-.9-1.715A2.2,2.2,0,0,1,108.95,5.272ZM12.03,9.028a2.2,2.2,0,1,1-.98-4.164,2.9,2.9,0,0,1,.817.163,2.225,2.225,0,0,1,1.388,2.041A2.277,2.277,0,0,1,12.03,9.028ZM10.642,49.282,6.8,53.119,2.967,49.282l.653-.653L6.8,45.444l1.143,1.143ZM61.593,9.028l-1.47,1.47-1.47-1.47-.245-.245L56.285,6.66,58,4.945l.245-.245,1.878-1.878,1.8,1.8.245.245,1.715,1.715L61.838,8.619ZM115.319,53.2l-3.838-3.838,2.613-2.613,1.225-1.225,3.1,3.1.735.735Z" transform="translate(-0.15 -0.25)" fill="#07284f"/>
    <path id="Shape-6" data-name="Shape" d="M77.569,95.667H55.6a2.2,2.2,0,0,1-2.2-2.2V81.7a2.2,2.2,0,0,1,2.2-2.2h28.17a2.2,2.2,0,0,1,2.2,2.2V93.462a2.2,2.2,0,0,1-2.2,2.2H77.569Z" transform="translate(-9.921 -14.791)" fill="#ff6464"/>
  </g>
</svg>
