<svg id="Page-1" xmlns="http://www.w3.org/2000/svg" width="105.331" height="99.467" viewBox="0 0 105.331 99.467">
  <g id="Appreciation" transform="translate(0 0)">
    <path id="Shape" d="M57.486,117.273a2.5,2.5,0,0,1-2.473,2.473H3.373a2.473,2.473,0,0,1,0-4.945H55.013A2.5,2.5,0,0,1,57.486,117.273Z" transform="translate(-0.9 -33.842)" fill="#07284f"/>
    <path id="Shape-2" data-name="Shape" d="M27.931,45.107V96.254H11.4V45.107A1.9,1.9,0,0,1,13.307,43.2H26.023A1.9,1.9,0,0,1,27.931,45.107Z" transform="translate(-3.982 -12.823)" fill="#ff6464"/>
    <path id="Shape-3" data-name="Shape" d="M65.731,25.966v64.71H49.2V25.966A1.749,1.749,0,0,1,50.966,24.2H64.035A1.735,1.735,0,0,1,65.731,25.966Z" transform="translate(-15.079 -7.245)" fill="#ff6464"/>
    <path id="Shape-4" data-name="Shape" d="M103.2,1.754V46.543l-1.907.777L86.6,53.678V1.754A1.568,1.568,0,0,1,88.154.2h13.493A1.568,1.568,0,0,1,103.2,1.754Z" transform="translate(-26.058 -0.2)" fill="#ff6464"/>
    <path id="Shape-5" data-name="Shape" d="M76.978,108.583a2.5,2.5,0,0,1-2.473,2.473H70.267a26.331,26.331,0,0,1-1.13-2.473c-.283-.777-.565-1.625-.848-2.473a27.413,27.413,0,0,1-.989-7.276A26.138,26.138,0,0,1,71.044,85.2v20.911h3.462A2.5,2.5,0,0,1,76.978,108.583Z" transform="translate(-20.392 -25.152)" fill="#07284f"/>
    <path id="Shape-6" data-name="Shape" d="M101.294,66.971,86.6,73.329V70.291A26.706,26.706,0,0,1,99.528,66.9,14.767,14.767,0,0,1,101.294,66.971Z" transform="translate(-26.058 -19.78)" fill="#07284f"/>
    <ellipse id="Oval" cx="26.562" cy="26.562" rx="26.562" ry="26.562" transform="translate(52.206 46.343)" fill="#07284f"/>
    <path id="Shape-7" data-name="Shape" d="M97.267,89.9a2.865,2.865,0,0,0,2.9,2.9h8.972L95.148,106.78a2.9,2.9,0,1,0,4.1,4.1L113.233,96.89v8.972a2.9,2.9,0,1,0,5.793,0V89.9a2.865,2.865,0,0,0-2.9-2.9H100.163A2.909,2.909,0,0,0,97.267,89.9Z" transform="translate(-28.318 -25.681)" fill="#fff"/>
  </g>
</svg>
