<svg id="Page-1" xmlns="http://www.w3.org/2000/svg" width="121.171" height="103.963" viewBox="0 0 121.171 103.963">
  <g id="Partnership" transform="translate(0 0)">
    <path id="Shape" d="M89.4,47.3h-.9" transform="translate(-16.973 -8.761)" fill="#fff"/>
    <path id="Shape-2" data-name="Shape" d="M94.776,80.508a4.879,4.879,0,0,1,0,6.859l-.327.327a4.879,4.879,0,0,1-6.859,0l2.531,2.531a4.879,4.879,0,0,1,0,6.859l-.327.327a4.879,4.879,0,0,1-6.859,0l-.082-.082a4.879,4.879,0,0,1,0,6.859l-.327.327a4.879,4.879,0,0,1-6.859,0l-.572-.572a4.85,4.85,0,1,1-6.859,6.859L63.1,105.657l-2.694.408-39.6-39.6L42.764,44.5l5.8,5.8a2.81,2.81,0,0,0,3.919,0l.245-.245a6.7,6.7,0,0,1,9.472,0l1.061,1.061.082.408,1.388-1.388.245-.245a10.368,10.368,0,0,1,.98-.817,1.785,1.785,0,0,1,.408-.245c.408-.245.9-.49,1.388-.735.163-.082.245-.163.408-.163a12.473,12.473,0,0,1,2.776-.735c.163,0,.245-.082.408-.082A28.5,28.5,0,0,1,74.2,46.95H89.959L107.514,64.5,93.061,78.957Z" transform="translate(-4.551 -8.247)" fill="#c5dcfa"/>
    <path id="Shape-3" data-name="Shape" d="M113.744,64.892,99.292,79.344,82.227,62.279a6.013,6.013,0,0,0-8.41,0L70.8,65.3l-1.143,1.143A10.251,10.251,0,0,1,55.2,66.361L69.489,52.072l1.388-1.388.245-.245a10.37,10.37,0,0,1,.98-.817,1.785,1.785,0,0,1,.408-.245c.408-.245.9-.49,1.388-.735.163-.082.245-.163.408-.163a12.474,12.474,0,0,1,2.776-.735c.163,0,.245-.082.408-.082a28.506,28.506,0,0,1,2.858-.163H96.107Z" transform="translate(-10.863 -8.797)" fill="#07284f" opacity="0.797"/>
    <g id="Group" transform="translate(23.801 66.75)" opacity="0.797">
      <path id="Shape-4" data-name="Shape" d="M14.38,9.219,8.419,15.18a4.534,4.534,0,0,1-6.45,0L1.4,14.608a4.534,4.534,0,0,1,0-6.45L7.358,2.2a4.534,4.534,0,0,1,6.45,0l.572.572A4.534,4.534,0,0,1,14.38,9.219Z" transform="translate(-0.05 -0.85)" fill="#07284f"/>
      <path id="Shape-5" data-name="Shape" d="M25.1,14.619,13.019,26.7a4.534,4.534,0,0,1-6.45,0L6,26.132a4.534,4.534,0,0,1,0-6.45L18.082,7.6a4.534,4.534,0,0,1,6.45,0l.572.572A4.687,4.687,0,0,1,25.1,14.619Z" transform="translate(-0.894 -1.841)" fill="#07284f"/>
      <path id="Shape-6" data-name="Shape" d="M33.324,21.86a4.663,4.663,0,0,1-1.306,4.246l-7.512,7.512a4.682,4.682,0,0,1-6.7,0l-.327-.327a4.682,4.682,0,0,1,0-6.7L25,19.083a4.682,4.682,0,0,1,6.7,0l.327.327a5.492,5.492,0,0,1,1.306,2.45" transform="translate(-2.99 -3.937)" fill="#07284f"/>
      <path id="Shape-7" data-name="Shape" d="M39.475,36.9,35.8,40.575a4.732,4.732,0,0,1-6.614,0l-.49-.49a4.732,4.732,0,0,1,0-6.614L32.372,29.8a4.732,4.732,0,0,1,6.614,0l.49.49A4.586,4.586,0,0,1,39.475,36.9Z" transform="translate(-5.059 -5.914)" fill="#07284f"/>
    </g>
    <path id="Shape-8" data-name="Shape" d="M29.233,24.873,1.88,52.389a3.45,3.45,0,0,0,0,4.817L8,63.331l1.878,1.878a3.45,3.45,0,0,0,4.817,0L42.216,37.692a3.451,3.451,0,0,0,0-4.817l-8.083-8A3.474,3.474,0,0,0,29.233,24.873ZM11.188,58.35a2.776,2.776,0,1,1,2.776-2.776A2.862,2.862,0,0,1,11.188,58.35Z" transform="translate(-0.9 -4.46)" fill="#ff6464"/>
    <path id="Shape-9" data-name="Shape" d="M106.337,24.875,98.58,32.8a3.351,3.351,0,0,0,0,4.736L126.1,65.047a3.45,3.45,0,0,0,4.817,0l7.92-8a3.451,3.451,0,0,0,0-4.817l-27.68-27.517A3.622,3.622,0,0,0,106.337,24.875Zm23.352,33.477a2.776,2.776,0,1,1,2.776-2.776A2.862,2.862,0,0,1,129.689,58.352Z" transform="translate(-18.643 -4.462)" fill="#ff6464"/>
    <path id="Shape-10" data-name="Shape" d="M77.015,5.489A1.725,1.725,0,0,1,75.3,3.774V1.815A1.725,1.725,0,0,1,77.015.1a1.674,1.674,0,0,1,1.715,1.715v1.96A1.78,1.78,0,0,1,77.015,5.489Z" transform="translate(-14.551 -0.1)" fill="#ff6464"/>
    <path id="Shape-11" data-name="Shape" d="M77.015,25.34A1.725,1.725,0,0,1,75.3,23.626V11.215A1.725,1.725,0,0,1,77.015,9.5a1.674,1.674,0,0,1,1.715,1.715V23.626A1.78,1.78,0,0,1,77.015,25.34Z" transform="translate(-14.551 -1.825)" fill="#07284f"/>
    <path id="Shape-12" data-name="Shape" d="M97.813,14.733a1.678,1.678,0,0,1-1.47-2.531l6.94-11.186A1.643,1.643,0,0,1,105.57.444a1.643,1.643,0,0,1,.572,2.286L99.2,13.916A1.516,1.516,0,0,1,97.813,14.733Z" transform="translate(-18.366 -0.117)" fill="#ff6464"/>
    <path id="Shape-13" data-name="Shape" d="M91.013,27.266a1.678,1.678,0,0,1-1.47-2.531l2.45-3.919a1.666,1.666,0,1,1,2.858,1.715L92.4,26.449A1.6,1.6,0,0,1,91.013,27.266Z" transform="translate(-17.119 -3.75)" fill="#07284f"/>
    <path id="Shape-14" data-name="Shape" d="M61.417,25.577a1.437,1.437,0,0,1-1.388-.817L52.844,13.33A1.666,1.666,0,1,1,55.7,11.615l7.185,11.431a1.627,1.627,0,0,1-.572,2.286A1.861,1.861,0,0,1,61.417,25.577Z" transform="translate(-10.385 -2.062)" fill="#07284f"/>
  </g>
</svg>
