<svg xmlns="http://www.w3.org/2000/svg" width="209.749" height="145.382" viewBox="0 0 209.749 145.382">
  <g id="Page-1" transform="translate(-0.4 -0.288)">
    <g id="Deliver_by_Air" transform="translate(0.4 0.288)">
      <g id="Group" transform="translate(40.347 60.74)">
        <path id="Shape" d="M170,85.383H.6c0-39.2,26.04-69.964,59.09-80.552a83.3,83.3,0,0,1,43.638-2.146,82.06,82.06,0,0,1,19.315,6.868A85.116,85.116,0,0,1,168.428,69.5,83.024,83.024,0,0,1,170,85.383Z" transform="translate(-0.6 -0.742)" fill="#56616b"/>
        <path id="Shape-2" data-name="Shape" d="M90.9,82.235a23.527,23.527,0,0,0-2,3.148H51.843a79.35,79.35,0,0,1-.572-13.02c.858-17.312-6.581-19.888-16.6-32.192-8.441-10.588-6.725-12.734,11.16-33.766l1.288-1.574A83.3,83.3,0,0,1,90.759,2.685l3.863,1a80.124,80.124,0,0,1,15.452,5.866c0,10.874,1.145,24.037,5.437,33.909C122.379,58.2,100.059,69.788,90.9,82.235Z" transform="translate(11.969 -0.742)" fill="#ff6464"/>
      </g>
      <path id="Shape-3" data-name="Shape" d="M63.21,35.661A116.223,116.223,0,0,0,8.985,133.668H.4A123.988,123.988,0,0,1,58.775,28.507a4.175,4.175,0,0,1,5.866,1.288A4.37,4.37,0,0,1,63.21,35.661Z" transform="translate(-0.4 11.571)" fill="#07284f" opacity="0.498"/>
      <g id="Group-2" data-name="Group" transform="translate(69.535)">
        <path id="Shape-4" data-name="Shape" d="M30.8,25.2,39.528.877l7.3-.572a8.961,8.961,0,0,1,9.443,7.726l.858,14.594" transform="translate(13.267 -0.288)" fill="#07284f" opacity="0.888"/>
        <path id="Shape-5" data-name="Shape" d="M68.819,40.214l36.2-3a10.233,10.233,0,0,0,8.728-6.152l2.432-5.008L101.87,19.611A33.367,33.367,0,0,0,83.986,16.75L22.177,22.9,11.446,14.031A15.1,15.1,0,0,0,0,10.74L7.154,35.493a12.125,12.125,0,0,0,12.877,8.871l23.321-2" transform="translate(0 4.156)" fill="#07284f" opacity="0.8"/>
        <path id="Shape-6" data-name="Shape" d="M29.6,27.089l3.577,32.764,7.869-.572a11.145,11.145,0,0,0,9.443-7.44L59.074,24.8" transform="translate(12.75 10.27)" fill="#07284f"/>
      </g>
      <path id="Shape-7" data-name="Shape" d="M154.366,106.681H129.9c4.292-14.308,10.3-14.88,23.035-15.881A96.4,96.4,0,0,1,154.366,106.681Z" transform="translate(55.383 38.7)" fill="#ff6464"/>
    </g>
  </g>
</svg>
