<svg id="logo-icp" xmlns="http://www.w3.org/2000/svg" width="508.213" height="100.58" viewBox="0 0 508.213 100.58">
  <rect id="Rectangle_275" data-name="Rectangle 275" width="126.692" height="66.069" transform="translate(0 17.255)" fill="#1f3661"/>
  <g id="Group_134" data-name="Group 134" transform="translate(21.061 32.018)">
    <g id="Group_133" data-name="Group 133">
      <path id="Path_1812" data-name="Path 1812" d="M32.166,84.114a3.883,3.883,0,0,1,1.247-.328c2.821-.2,4.4-.525,4.79-.984s.59-2.821.59-7.02v-5.9l-.131-3.346.066-1.968V59.9l-.066-1.115.066-1.443V56.164a36.382,36.382,0,0,0-.2-3.674,2.425,2.425,0,0,0-.328-.722,9.778,9.778,0,0,0-3.28-.722,9.666,9.666,0,0,1-2.559-.394A1.6,1.6,0,0,1,32.1,49.8h2.3l7.283.2q2.756,0,7.48-.2a3.741,3.741,0,0,1-.066.853c-.394.066-.984.2-1.837.328a12.182,12.182,0,0,0-3.149.59.91.91,0,0,0-.525.459,4.78,4.78,0,0,0-.328,1.837l-.066,3.609.131,12.2v4.855c-.066,1.509-.066,2.559-.066,3.084,0,2.034.066,3.346.131,3.937a1.914,1.914,0,0,0,1.771,1.837,10.023,10.023,0,0,0,1.968.328,3.675,3.675,0,0,1,1.968.459,2.26,2.26,0,0,1,.066.59v.2c-1.64.066-2.887.066-3.674.066-.459,0-1.247,0-2.428-.066l-3.805.066H32.3Z" transform="translate(-32.1 -49.144)" fill="#fff"/>
      <path id="Path_1813" data-name="Path 1813" d="M94.484,51.162a30.514,30.514,0,0,1,.328,4.33v1.181a2.26,2.26,0,0,1-.59.066,1.281,1.281,0,0,1-.459-.066,9.564,9.564,0,0,0-3.74-4.921,11.064,11.064,0,0,0-6.43-1.706,10.215,10.215,0,0,0-3.412.459,15.276,15.276,0,0,0-4.33,2.362A13.581,13.581,0,0,0,72.7,56.411,18.387,18.387,0,0,0,70.667,61.4a23.049,23.049,0,0,0-.722,6.036,23.142,23.142,0,0,0,1.771,9.71,11.087,11.087,0,0,0,4.855,5.446,13.6,13.6,0,0,0,6.233,1.64h1.312a20.528,20.528,0,0,0,3.018-.525,14.091,14.091,0,0,0,3.28-1.378A11.112,11.112,0,0,0,92.975,80.1a12.118,12.118,0,0,0,2.1-3.346l.328-.131a1.014,1.014,0,0,1,.394.2c0,.459-.066.722-.066.853-.787,3.084-1.312,5.183-1.64,6.3-.262.066-.656.2-1.115.328A27.576,27.576,0,0,1,84.38,85.41a26.525,26.525,0,0,1-6.5-.59,23.544,23.544,0,0,1-4.658-1.837,15.7,15.7,0,0,1-4.461-3.28,15.984,15.984,0,0,1-3.084-5.183A19.367,19.367,0,0,1,64.5,67.7a18.663,18.663,0,0,1,.919-6.1,19.309,19.309,0,0,1,2.887-5.314A18.517,18.517,0,0,1,72.9,51.818a16.893,16.893,0,0,1,5.9-2.493,31.82,31.82,0,0,1,6.43-.525,20,20,0,0,1,5.708.787A10.723,10.723,0,0,1,94.484,51.162Z" transform="translate(-43.242 -48.8)" fill="#fff"/>
      <path id="Path_1814" data-name="Path 1814" d="M116.8,49.925a3.013,3.013,0,0,1,.656-.066c.59,0,1.64.066,3.084.131h1.509c.394,0,1.247-.066,2.559-.131l4.658-.262a40.552,40.552,0,0,1,4.265-.2,15.276,15.276,0,0,1,6.823,1.247,8.5,8.5,0,0,1,3.937,3.805,10.956,10.956,0,0,1,1.378,5.183,10.2,10.2,0,0,1-3.018,7.414,10.773,10.773,0,0,1-8.136,3.149,8.089,8.089,0,0,1-2.362-.262,8.526,8.526,0,0,1-2.165-1.115,2.183,2.183,0,0,1-.656-.722.655.655,0,0,1,.328-.262,1.747,1.747,0,0,1,.787.2,7.558,7.558,0,0,0,2.362.328,8.005,8.005,0,0,0,4.068-1.05,6.755,6.755,0,0,0,2.887-3.018,9.126,9.126,0,0,0,.984-4.133,8.421,8.421,0,0,0-1.05-4.133,8.785,8.785,0,0,0-2.756-3.215,9.132,9.132,0,0,0-2.952-1.181,13.374,13.374,0,0,0-3.084-.459c-2.231,0-3.609.2-4,.525v.394l.066,3.084V55.7a21.212,21.212,0,0,0-.066,2.3,69.472,69.472,0,0,0,.2,6.955v1.509l.328,12.531a6.489,6.489,0,0,1-.066.984,9.708,9.708,0,0,0-.066,1.312,7.559,7.559,0,0,0,.2,1.968c.459.131,1.706.459,3.805.919a14.259,14.259,0,0,0,1.64.394,1.74,1.74,0,0,1,.394.328,1.256,1.256,0,0,1-.262.525,1.53,1.53,0,0,1-.722.131c-.2,0-.722-.066-1.509-.131a30.542,30.542,0,0,0-3.674-.262l-4.79.2-2.887-.066c-.2,0-.722,0-1.575.066v-.722l3.543-.656a1.691,1.691,0,0,0,1.05-.525,2.8,2.8,0,0,0,.262-1.509V79.318c0-2.165-.066-6.758-.262-13.778-.066-3.28-.131-6.627-.131-10.038v-.459c0-1.312-.2-2.165-.59-2.493-.656-.59-2.362-1.115-5.052-1.509a2.028,2.028,0,0,1-.131-.525A1.058,1.058,0,0,1,116.8,49.925Z" transform="translate(-61.16 -49.006)" fill="#fff"/>
    </g>
  </g>
  <rect id="Rectangle_276" data-name="Rectangle 276" width="1.312" height="100.58" transform="translate(138.305)" fill="#1f3661"/>
  <g id="Group_136" data-name="Group 136" transform="translate(153.789 41.859)">
    <g id="Group_135" data-name="Group 135">
      <path id="Path_1815" data-name="Path 1815" d="M234.4,80.678v-.853a4.465,4.465,0,0,1,.787-.2,6.1,6.1,0,0,0,1.181-.394,2.3,2.3,0,0,0,.2-1.05V73.264c.066-1.64.066-2.428.066-2.493V69.13l.066-.656-.066-1.378v-.525a2.32,2.32,0,0,1-.066-.394,4.417,4.417,0,0,0-1.64-.262.973.973,0,0,1-.459-.066V64.8l3.477.131h.787c.459,0,1.247,0,2.3-.066a9.769,9.769,0,0,1,1.115-.066v.919c-.328.131-.722.2-1.115.328a10.236,10.236,0,0,0-1.05.328,3.486,3.486,0,0,0-.066.919,3.207,3.207,0,0,0,.066.853c0,1.378-.066,2.428-.066,3.215v3.215l-.066,1.64.066,2.428-.066.459a.5.5,0,0,0,.066.262,5.366,5.366,0,0,0,1.378.2,5.227,5.227,0,0,0,.722.066c0,.262.066.459.066.59v.394h-.722a.878.878,0,0,1-.328-.066c-.131,0-.656-.066-1.64-.2h-2.165c-.459,0-1.05.066-1.9.131A3.821,3.821,0,0,1,234.4,80.678Z" transform="translate(-234.4 -64.144)" fill="#1f3661"/>
      <path id="Path_1816" data-name="Path 1816" d="M248.166,65.75,248.1,64.9h1.378c.459,0,.853-.066.984-.066h3.018c1.247,1.115,2.3,2.1,3.084,2.952s3.674,3.74,8.66,8.66v-.328l-.066-1.443c0-.853-.066-1.509-.066-1.968a13.754,13.754,0,0,1-.066-1.771c0-.656-.066-1.312-.066-1.837-.066-1.05-.131-1.706-.131-1.837a1.557,1.557,0,0,0-.2-.984,2.042,2.042,0,0,0-1.181-.394,4.949,4.949,0,0,1-.984-.262V64.9l.328-.066,2.428-.066,2.69-.066h.525v.787a2.085,2.085,0,0,1-.591.2,4.209,4.209,0,0,0-.918.262c-.394.262-.656.394-.656.459a.765.765,0,0,0-.131.459V68.44c0,1.181.066,2.1.066,2.821a2.942,2.942,0,0,0,.066.722l.131,4.33v2.165l.066.656-.066.656a3.628,3.628,0,0,0,.066.59v.656l-1.378.066-1.443-1.509L260.7,76.641l-2.1-2.1-1.509-1.575c-.984-.984-1.9-1.837-2.69-2.559l-1.968-1.771.131,4.527V74.87l.066,1.575c0,.656.066,1.378.131,2.165a3.7,3.7,0,0,0,.066.459,2.58,2.58,0,0,0,.131.394,8.515,8.515,0,0,0,2.1.262,2.842,2.842,0,0,0,.328.066l.066.984h-.459c-.262,0-1.115-.066-2.493-.2-1.312,0-2.165.066-2.624.066a4.113,4.113,0,0,0-.722.066.975.975,0,0,1-.394-.066v-.919a1.817,1.817,0,0,1,.59-.066h.459a3.971,3.971,0,0,0,1.247-.131,1.231,1.231,0,0,0,.2-.853c.066-1.312.066-2.1.066-2.362V71.655l-.066-2.493a6.906,6.906,0,0,0-.2-1.968,1.057,1.057,0,0,0-.262-.459,2.6,2.6,0,0,0-.984-.656A13.251,13.251,0,0,0,248.166,65.75Z" transform="translate(-239.111 -64.11)" fill="#1f3661"/>
      <path id="Path_1817" data-name="Path 1817" d="M280.466,65.75,280.4,64.9h1.378c.459,0,.853-.066.984-.066h3.018c1.247,1.115,2.3,2.1,3.084,2.952s3.674,3.74,8.66,8.66v-.328l-.066-1.443c0-.853-.066-1.509-.066-1.968a13.767,13.767,0,0,1-.066-1.771c0-.656-.066-1.312-.066-1.837-.066-1.05-.131-1.706-.131-1.837a1.557,1.557,0,0,0-.2-.984,2.042,2.042,0,0,0-1.181-.394,4.948,4.948,0,0,1-.984-.262V64.9l.328-.066,2.428-.066,2.69-.066h.525v.787a2.085,2.085,0,0,1-.59.2,4.21,4.21,0,0,0-.919.262c-.394.262-.656.394-.656.459a.764.764,0,0,0-.131.459V68.44c0,1.181.066,2.1.066,2.821a2.941,2.941,0,0,0,.066.722l.131,4.33v2.165l.066.656-.066.656a3.626,3.626,0,0,0,.066.59v.656l-1.378.066-1.443-1.509L293,76.641l-2.1-2.1-1.509-1.575c-.984-.984-1.9-1.837-2.69-2.559l-1.968-1.771.131,4.527V74.87l.066,1.575c0,.656.066,1.378.131,2.165a3.7,3.7,0,0,0,.066.459,2.58,2.58,0,0,0,.131.394,8.515,8.515,0,0,0,2.1.262,2.841,2.841,0,0,0,.328.066l.066.984h-.459c-.262,0-1.115-.066-2.493-.2-1.312,0-2.165.066-2.624.066a4.113,4.113,0,0,0-.722.066.975.975,0,0,1-.394-.066v-.919a1.816,1.816,0,0,1,.59-.066h.459a3.97,3.97,0,0,0,1.247-.131,1.231,1.231,0,0,0,.2-.853c.066-1.312.066-2.1.066-2.362V71.655l-.066-2.493a6.907,6.907,0,0,0-.2-1.968,1.057,1.057,0,0,0-.262-.459,2.6,2.6,0,0,0-.984-.656A13.258,13.258,0,0,0,280.466,65.75Z" transform="translate(-250.22 -64.11)" fill="#1f3661"/>
      <path id="Path_1818" data-name="Path 1818" d="M314.2,72.37a8.229,8.229,0,0,1,.59-3.018,7.139,7.139,0,0,1,1.181-2.034,9.269,9.269,0,0,1,1.9-1.64,8.4,8.4,0,0,1,2.362-1.05,11.183,11.183,0,0,1,2.69-.328,9.25,9.25,0,0,1,4.4.984,7.8,7.8,0,0,1,4.33,7.02,8.326,8.326,0,0,1-8.923,8.464,18.578,18.578,0,0,1-1.968-.131,5.264,5.264,0,0,1-1.181-.262c-.591-.2-.984-.328-1.05-.328a12.352,12.352,0,0,1-2.165-1.575,9.153,9.153,0,0,1-1.378-1.771,11.012,11.012,0,0,1-.722-2.034C314.266,73.945,314.2,73.223,314.2,72.37Zm8.332-6.823a3.763,3.763,0,0,0-1.9.525,4.189,4.189,0,0,0-1.247,1.115,6.816,6.816,0,0,0-.984,2.231,12.616,12.616,0,0,0-.262,2.952,8.872,8.872,0,0,0,.066,1.509,3.533,3.533,0,0,1,.066.525,4.523,4.523,0,0,0,.262,1.312,10.486,10.486,0,0,0,.722,1.9,4.777,4.777,0,0,0,1.115,1.247,4.972,4.972,0,0,0,1.05.59,3.427,3.427,0,0,0,1.378.262,5.109,5.109,0,0,0,2.428-.59,4.512,4.512,0,0,0,1.837-2.1,9.335,9.335,0,0,0,.656-3.871c0-.656-.066-1.509-.131-2.69l-.066-.262c0-.066-.066-.262-.131-.525a5.679,5.679,0,0,0-1.706-3.084A4.463,4.463,0,0,0,322.532,65.547Z" transform="translate(-261.843 -63.972)" fill="#1f3661"/>
      <path id="Path_1819" data-name="Path 1819" d="M341.3,65.581v-1.05h.787a31.161,31.161,0,0,0,3.937.2c.262,0,.722,0,1.509-.066.525-.066.919-.066,1.181-.131h.919v.984c-.787.131-1.312.2-1.443.2a1.284,1.284,0,0,0-.787.394.5.5,0,0,0-.131.328V66.7l.394,1.05a33.878,33.878,0,0,0,1.443,3.412l1.378,3.149c.262.59.525,1.181.722,1.771l.722-1.771,1.443-4.068.328-.853a2.973,2.973,0,0,0,.131-.525c.2-.722.394-1.247.525-1.64a2.891,2.891,0,0,0,.2-.919.474.474,0,0,0-.262-.394,2.539,2.539,0,0,0-1.181-.328c-.131,0-.262-.066-.459-.066s-.328-.066-.525-.066a.832.832,0,0,1-.066-.394,2.538,2.538,0,0,1,.066-.59,12.325,12.325,0,0,1,1.247.066c.722.066,1.378.066,2.034.066a14.846,14.846,0,0,0,1.771-.066c.459-.066.853-.066,1.181-.131v.853a12.513,12.513,0,0,0-1.837.787c-.131.066-.2.2-.328.394a24.959,24.959,0,0,0-1.443,3.346l-1.575,4.068c-.131.394-.328.787-.459,1.247a9.367,9.367,0,0,0-.525,1.443c-.066.131-.262.59-.591,1.443l-.131.2c-.328,1.181-.656,1.968-.787,2.362h-1.247c-.066-.262-.2-.525-.262-.722-.066-.262-.459-1.115-1.05-2.69l-2.3-5.183L344.449,68.6c-.722-1.509-1.115-2.362-1.181-2.428a3.032,3.032,0,0,0-.459-.459,5.98,5.98,0,0,0-1.05-.2Z" transform="translate(-271.163 -64.006)" fill="#1f3661"/>
      <path id="Path_1820" data-name="Path 1820" d="M365,80.506v-.853a4.132,4.132,0,0,1,.853-.2,4.711,4.711,0,0,0,1.115-.328,1.8,1.8,0,0,0,.525-.722l2.493-6.5,2.887-7.611h1.312l.131.2,2.1,5.052c.459,1.05.919,2.1,1.312,3.149.394.984.722,1.837.984,2.493.131.394.394.984.656,1.706.131.394.394.919.656,1.575a1.122,1.122,0,0,0,.394.59,1.512,1.512,0,0,0,.722.262,8.158,8.158,0,0,1,1.05.262,2.261,2.261,0,0,1,.066.59v.262c-.59,0-1.247,0-1.968-.066s-1.378-.066-1.968-.066h-1.378l-2.1.131h-.59a3.739,3.739,0,0,1,.066-.853l1.378-.262a3.5,3.5,0,0,0,.722-.262.5.5,0,0,0,.131-.262.591.591,0,0,0-.066-.328l-.459-1.181-.984-2.428H370.38c-.2.394-.525,1.378-1.05,2.887a8.371,8.371,0,0,0-.262.853.511.511,0,0,0,.2.459,2.444,2.444,0,0,0,1.05.328c.066,0,.394.066.853.131v.853c-.525,0-1.706-.066-3.609-.2l-.525.066a16.153,16.153,0,0,1-1.706.131H365Zm5.774-6.889c1.9,0,3.018.066,3.346.066h.328q-.394-1.083-.984-2.559c-.394-.984-.722-1.706-.984-2.231Z" transform="translate(-279.314 -63.972)" fill="#1f3661"/>
      <path id="Path_1821" data-name="Path 1821" d="M415.844,64.925a16.836,16.836,0,0,1,.656,2.1,12.25,12.25,0,0,1,.262,1.64h-1.115a8.5,8.5,0,0,0-2.428-2.428,5.816,5.816,0,0,0-2.821-.722,3.822,3.822,0,0,0-3.084,1.509A8.811,8.811,0,0,0,405.74,72.6,10.658,10.658,0,0,0,406,75.554a7.183,7.183,0,0,0,1.115,2.362,3.349,3.349,0,0,0,1.378,1.115,4.717,4.717,0,0,0,2.3.525,4.467,4.467,0,0,0,2.624-.853,8.823,8.823,0,0,0,2.428-2.493,6.379,6.379,0,0,1,1.181-.066,5.062,5.062,0,0,1-.131.984c0,.131-.131.656-.262,1.575l-.131.394-.2.59a5.2,5.2,0,0,1-2.1.853,16.467,16.467,0,0,1-3.346.262,12.884,12.884,0,0,1-2.821-.262,6.03,6.03,0,0,1-2.3-.919,8.979,8.979,0,0,1-2.165-1.9,7.294,7.294,0,0,1-1.181-2.231A8.587,8.587,0,0,1,402,72.8a8.01,8.01,0,0,1,2.428-6.036,8.41,8.41,0,0,1,6.167-2.362c.984,0,1.968.066,2.887.131A12.669,12.669,0,0,1,415.844,64.925Z" transform="translate(-292.038 -64.006)" fill="#1f3661"/>
      <path id="Path_1822" data-name="Path 1822" d="M425.5,80.506v-.853a4.133,4.133,0,0,1,.853-.2,4.711,4.711,0,0,0,1.115-.328,1.8,1.8,0,0,0,.525-.722l2.493-6.5,2.887-7.611h1.312l.131.2,2.1,5.052c.459,1.05.919,2.1,1.312,3.149.394.984.722,1.837.984,2.493.131.394.394.984.656,1.706.131.394.394.919.656,1.575a1.122,1.122,0,0,0,.394.59,1.512,1.512,0,0,0,.722.262,8.159,8.159,0,0,1,1.05.262,2.26,2.26,0,0,1,.066.59v.262c-.59,0-1.247,0-1.968-.066s-1.378-.066-1.968-.066h-1.378l-2.1.131h-.59a3.739,3.739,0,0,1,.066-.853l1.378-.262a3.5,3.5,0,0,0,.722-.262.5.5,0,0,0,.131-.262.591.591,0,0,0-.066-.328l-.459-1.181-.984-2.428H430.88c-.2.394-.525,1.378-1.05,2.887a8.371,8.371,0,0,0-.262.853.511.511,0,0,0,.2.459,2.444,2.444,0,0,0,1.05.328c.066,0,.394.066.853.131v.853c-.525,0-1.706-.066-3.609-.2l-.525.066a16.153,16.153,0,0,1-1.706.131H425.5Zm5.774-6.889c1.9,0,3.018.066,3.346.066h.328q-.394-1.083-.984-2.559c-.394-.984-.722-1.706-.984-2.231Z" transform="translate(-300.12 -63.972)" fill="#1f3661"/>
      <path id="Path_1823" data-name="Path 1823" d="M452,65.619V64.7l2.952.2h1.771c.525,0,1.247,0,2.362-.066a9.77,9.77,0,0,1,1.115-.066,9.464,9.464,0,0,1,2.3.2,3.89,3.89,0,0,1,1.9.787,4.657,4.657,0,0,1,1.181,1.509,4.377,4.377,0,0,1,.525,1.837,4.861,4.861,0,0,1-1.312,3.477,4.451,4.451,0,0,1-3.412,1.312,4.994,4.994,0,0,1-1.378-.2,3.242,3.242,0,0,1-1.181-.525,4.344,4.344,0,0,1-.066-.984,1.279,1.279,0,0,1,.525.066h.394a2.748,2.748,0,0,0,1.771-.59,2.863,2.863,0,0,0,.919-2.428,4.382,4.382,0,0,0-.394-1.968,2.2,2.2,0,0,0-.984-1.05,3.906,3.906,0,0,0-1.771-.394,2.312,2.312,0,0,0-1.312.262c-.066.131-.131.2-.131.328l.066,5.774v.459l.066.525V78.15a7.585,7.585,0,0,0,.066,1.115l2.428.328c0,.2.066.328.066.459a1.848,1.848,0,0,1-.066.525c-.2,0-.328.066-.459.066-.262,0-.722,0-1.443-.066s-1.509-.066-2.428-.066a20.636,20.636,0,0,0-2.887.2c-.131,0-.394.066-.722.066,0-.262-.066-.394-.066-.525v-.328l.722-.262a3.466,3.466,0,0,0,1.312-.59,2.885,2.885,0,0,0,.131-.656V77.1l-.066-3.412-.131-3.871c-.066-1.837-.131-2.821-.131-3.018a.988.988,0,0,0-.262-.525,1.049,1.049,0,0,0-.722-.262A5.1,5.1,0,0,0,452,65.619Z" transform="translate(-309.233 -64.11)" fill="#1f3661"/>
      <path id="Path_1824" data-name="Path 1824" d="M476.2,80.678v-.853a4.465,4.465,0,0,1,.787-.2,6.1,6.1,0,0,0,1.181-.394,2.3,2.3,0,0,0,.2-1.05V73.264c.066-1.64.066-2.428.066-2.493V69.13l.066-.656-.066-1.378v-.525a2.32,2.32,0,0,1-.066-.394,4.417,4.417,0,0,0-1.64-.262.973.973,0,0,1-.459-.066V64.8l3.477.131h.787c.459,0,1.247,0,2.3-.066a9.77,9.77,0,0,1,1.115-.066v.919c-.328.131-.722.2-1.115.328a10.23,10.23,0,0,0-1.05.328,3.486,3.486,0,0,0-.066.919,3.207,3.207,0,0,0,.066.853c0,1.378-.066,2.428-.066,3.215v3.215l-.066,1.64.066,2.428-.066.459a.5.5,0,0,0,.066.262,5.365,5.365,0,0,0,1.378.2,5.23,5.23,0,0,0,.722.066c0,.262.066.459.066.59v.394h-.722a.878.878,0,0,1-.328-.066c-.131,0-.656-.066-1.64-.2h-2.165c-.459,0-1.05.066-1.9.131A4.569,4.569,0,0,1,476.2,80.678Z" transform="translate(-317.556 -64.144)" fill="#1f3661"/>
      <path id="Path_1825" data-name="Path 1825" d="M491.078,63.8h.787c.066.066.066.131.131.2a3.165,3.165,0,0,0,.525.787c.131,0,.656.066,1.706.066h10.038l.722-.131c.131-.066.2-.262.328-.59a1.107,1.107,0,0,1,.131-.328h.918v4.33a1.279,1.279,0,0,1-.066.525,2.569,2.569,0,0,1-.853.2,12.466,12.466,0,0,1-.722-1.378,7.665,7.665,0,0,0-.459-.984.361.361,0,0,0-.328-.2,19.444,19.444,0,0,0-2.624-.066,4.355,4.355,0,0,0-.853.066,3.765,3.765,0,0,0-.066.787v5.249l.066,3.871v1.575a5.087,5.087,0,0,0,.131,1.247,1.756,1.756,0,0,0,.722.131,7.852,7.852,0,0,1,.919.2c.262.066.459.131.656.2a2.11,2.11,0,0,1,.066.525.713.713,0,0,1-.066.328h-.459a21.11,21.11,0,0,1-2.165-.066c-.59-.066-1.64-.066-3.215-.066-.262,0-.984.066-2.165.131-.459,0-.787.066-.919.066v-.787a1.756,1.756,0,0,1,.984-.525,12.625,12.625,0,0,0,1.771-.525,1.31,1.31,0,0,0,.131-.59c.066-.984.066-2.559.066-4.658l-.066-4.658a16.883,16.883,0,0,0-.066-2.3c0-.066-.066-.131-.066-.2-.066-.066-.066-.066-.2-.066-.262,0-1.05-.066-2.493-.066a4.094,4.094,0,0,0-1.575.2,9.534,9.534,0,0,0-1.575,1.64c-.2.262-.328.394-.459.394a2.726,2.726,0,0,1-.722-.459,22.522,22.522,0,0,0,1.05-3.215A8.032,8.032,0,0,1,491.078,63.8Z" transform="translate(-322.198 -63.8)" fill="#1f3661"/>
      <path id="Path_1826" data-name="Path 1826" d="M512.7,80.506v-.853a4.132,4.132,0,0,1,.853-.2,4.71,4.71,0,0,0,1.115-.328,1.8,1.8,0,0,0,.525-.722l2.493-6.5,2.887-7.611h1.312l.131.2,2.1,5.052c.459,1.05.919,2.1,1.312,3.149.394.984.722,1.837.984,2.493.131.394.394.984.656,1.706.131.394.394.919.656,1.575a1.122,1.122,0,0,0,.394.59,1.512,1.512,0,0,0,.722.262,8.149,8.149,0,0,1,1.05.262,2.258,2.258,0,0,1,.066.59v.262c-.591,0-1.247,0-1.968-.066s-1.378-.066-1.968-.066h-1.378l-2.1.131h-.591a3.744,3.744,0,0,1,.066-.853l1.378-.262a3.5,3.5,0,0,0,.722-.262.5.5,0,0,0,.131-.262.592.592,0,0,0-.066-.328l-.459-1.181-.984-2.428H518.08c-.2.394-.525,1.378-1.05,2.887a8.365,8.365,0,0,0-.263.853.511.511,0,0,0,.2.459,2.443,2.443,0,0,0,1.05.328c.066,0,.394.066.853.131v.853c-.525,0-1.706-.066-3.609-.2l-.525.066a16.154,16.154,0,0,1-1.706.131H512.7Zm5.774-6.889c1.9,0,3.018.066,3.346.066h.328q-.394-1.083-.984-2.559c-.394-.984-.722-1.706-.984-2.231Z" transform="translate(-330.108 -63.972)" fill="#1f3661"/>
      <path id="Path_1827" data-name="Path 1827" d="M539.166,79.59a10.3,10.3,0,0,1,1.05-.2c.459-.066.722-.131.787-.131a1.412,1.412,0,0,0,.656-.131,1.282,1.282,0,0,0,.066-.459V77.1l.066-1.575V72.045l.065-2.756V67.846a6.289,6.289,0,0,0-.2-1.443c-.066-.131-.262-.2-.722-.328a1.708,1.708,0,0,1-.459-.2,4.518,4.518,0,0,1-.525-.2,1.236,1.236,0,0,1-.591-.262V64.7c.066-.066.131-.066.262-.066.2,0,.919,0,2.1.066h3.084c.591,0,1.312-.066,2.165-.131a2.327,2.327,0,0,0,.459-.066c.131,0,.2,0,.263.066s.065.262.065.459a.554.554,0,0,1-.131.394c-.066.066-.2.131-.525.131l-1.509.328c-.066,0-.131.066-.2.066a.229.229,0,0,1-.066.131V66.4l-.066.787v1.968c0,.459.066.919.066,1.312a11.634,11.634,0,0,1-.066,1.443V72.7L545.2,78.54a.627.627,0,0,0,.131.459l1.181.066h1.509a7.823,7.823,0,0,0,3.084-.459,2.728,2.728,0,0,0,1.115-.656,3.479,3.479,0,0,0,.656-.787,5.3,5.3,0,0,0,.591-1.443h.394a2.462,2.462,0,0,1,.656.066v.328c0,.59-.066,1.64-.2,3.084a4.06,4.06,0,0,1-.2,1.05.8.8,0,0,0-.328.066h-1.115c-.066,0-.59,0-1.443-.066-.131,0-.919-.066-2.362-.066-1.378-.066-2.756-.066-4.133-.066l-2.493.066c-.984,0-1.837.066-2.69.131H539.1v-.262A1.279,1.279,0,0,1,539.166,79.59Z" transform="translate(-339.187 -64.041)" fill="#1f3661"/>
      <path id="Path_1828" data-name="Path 1828" d="M573.1,65.619V64.7l2.952.2h1.771c.525,0,1.247,0,2.362-.066a9.77,9.77,0,0,1,1.115-.066,9.465,9.465,0,0,1,2.3.2,3.89,3.89,0,0,1,1.9.787,4.656,4.656,0,0,1,1.181,1.509,4.377,4.377,0,0,1,.525,1.837,4.861,4.861,0,0,1-1.312,3.477,4.451,4.451,0,0,1-3.412,1.312,4.994,4.994,0,0,1-1.378-.2,3.242,3.242,0,0,1-1.181-.525,4.344,4.344,0,0,1-.066-.984,1.279,1.279,0,0,1,.525.066h.394a2.748,2.748,0,0,0,1.771-.59,2.863,2.863,0,0,0,.919-2.428,4.382,4.382,0,0,0-.394-1.968,2.2,2.2,0,0,0-.984-1.05,3.906,3.906,0,0,0-1.771-.394,2.312,2.312,0,0,0-1.312.262c-.066.131-.131.2-.131.328l.066,5.774v.459l.066.525V78.15a7.585,7.585,0,0,0,.066,1.115l2.427.328c0,.2.066.328.066.459a1.847,1.847,0,0,1-.066.525c-.2,0-.328.066-.459.066-.262,0-.722,0-1.443-.066s-1.509-.066-2.427-.066a20.636,20.636,0,0,0-2.887.2c-.131,0-.394.066-.722.066,0-.262-.066-.394-.066-.525v-.328l.722-.262a3.466,3.466,0,0,0,1.312-.59,2.888,2.888,0,0,0,.131-.656V77.1l-.066-3.412-.131-3.871c-.066-1.837-.131-2.821-.131-3.018a.988.988,0,0,0-.262-.525,1.049,1.049,0,0,0-.722-.262A7.739,7.739,0,0,0,573.1,65.619Z" transform="translate(-350.88 -64.11)" fill="#1f3661"/>
      <path id="Path_1829" data-name="Path 1829" d="M592.4,80.54v-.853a4.133,4.133,0,0,1,.853-.2,4.713,4.713,0,0,0,1.115-.328,1.8,1.8,0,0,0,.525-.722l2.493-6.43,2.887-7.611h1.312l.131.2,2.1,5.052c.459,1.05.919,2.1,1.312,3.149.394.984.722,1.837.984,2.493.131.394.394.984.656,1.706.131.394.394.919.656,1.575a1.122,1.122,0,0,0,.394.59,1.512,1.512,0,0,0,.722.262,8.156,8.156,0,0,1,1.05.262,2.26,2.26,0,0,1,.066.59v.262c-.591,0-1.247,0-1.968-.066s-1.378-.066-1.968-.066h-1.378l-2.1.131h-.591a3.741,3.741,0,0,1,.066-.853l1.378-.262a3.5,3.5,0,0,0,.722-.262.5.5,0,0,0,.131-.262.591.591,0,0,0-.066-.328l-.459-1.181-.984-2.428H597.78c-.2.394-.525,1.378-1.05,2.887a8.357,8.357,0,0,0-.262.853.511.511,0,0,0,.2.459,2.444,2.444,0,0,0,1.05.328c.066,0,.394.066.853.131v.853c-.525,0-1.706-.066-3.609-.2l-.525.066a16.155,16.155,0,0,1-1.706.131H592.4Zm5.774-6.889c1.9,0,3.018.066,3.346.066h.328q-.394-1.083-.984-2.559c-.394-.984-.722-1.706-.984-2.231Z" transform="translate(-357.517 -64.006)" fill="#1f3661"/>
      <path id="Path_1830" data-name="Path 1830" d="M619.574,79.856a2.572,2.572,0,0,1,.919-.262,5.556,5.556,0,0,0,1.115-.262.713.713,0,0,0,.066-.328V75.066l.066-1.443V71.851c0-.919.066-1.706.066-2.493,0-1.706,0-2.756-.066-3.28l-.722-.131a11.841,11.841,0,0,1-1.312-.131v-.722l.066-.131a6.747,6.747,0,0,1,1.115-.066H622a8.912,8.912,0,0,0,.984.066l.656-.066,1.509-.066c.984-.066,1.968-.131,3.018-.131a5.876,5.876,0,0,1,4,1.312,3.859,3.859,0,0,1,1.509,2.952,3.433,3.433,0,0,1-.787,2.231A4.9,4.9,0,0,1,630.4,72.7a1.549,1.549,0,0,0,.394.59c.328.459.59.919.853,1.247l1.968,3.149A7.185,7.185,0,0,0,634.6,79.2a2.316,2.316,0,0,0,.919.459,3.51,3.51,0,0,1,.853.394.833.833,0,0,1,.066.394v.262h-.591l-.656-.066h-.525a4.344,4.344,0,0,0-.984-.066h-1.247a6.093,6.093,0,0,0-.853.066c-.2,0-.394.066-.525.066l-.394-.787a14.969,14.969,0,0,1-.722-1.378c-.328-.787-.984-2.034-1.837-3.805a6.447,6.447,0,0,0-.853-1.378A2.074,2.074,0,0,0,626,73.1h-.853c0,.262-.066.525-.066.853l.066,2.69-.066,2.3a2.464,2.464,0,0,0,.919.328,8.293,8.293,0,0,1,1.64.459,3.489,3.489,0,0,1-.066.919h-.787c-1.771-.131-2.821-.262-3.149-.262h-.459l-1.706.131a10.65,10.65,0,0,1-1.378.066h-.525v-.394C619.509,80.184,619.509,80.053,619.574,79.856Zm5.511-7.873h.853a4.861,4.861,0,0,0,2.952-.722,2.5,2.5,0,0,0,.853-1.968,5.118,5.118,0,0,0-.2-1.443,2.28,2.28,0,0,0-.525-.984,2.745,2.745,0,0,0-1.181-.722,5.208,5.208,0,0,0-1.706-.2,4.345,4.345,0,0,0-.984.066v1.9l-.066.919v1.312a12.173,12.173,0,0,1-.066,1.443v.394Z" transform="translate(-366.846 -64.11)" fill="#1f3661"/>
      <path id="Path_1831" data-name="Path 1831" d="M645.178,63.8h.787c.066.066.066.131.131.2a3.164,3.164,0,0,0,.525.787c.131,0,.656.066,1.706.066h10.038l.722-.131c.131-.066.2-.262.328-.59a1.108,1.108,0,0,1,.131-.328h.919v4.33a1.279,1.279,0,0,1-.066.525,2.569,2.569,0,0,1-.853.2,12.467,12.467,0,0,1-.722-1.378,7.665,7.665,0,0,0-.459-.984.361.361,0,0,0-.328-.2,19.443,19.443,0,0,0-2.624-.066,4.356,4.356,0,0,0-.853.066,3.772,3.772,0,0,0-.065.787v5.249l.065,3.871v1.575a5.086,5.086,0,0,0,.131,1.247,1.756,1.756,0,0,0,.722.131,7.858,7.858,0,0,1,.919.2c.262.066.459.131.656.2a2.108,2.108,0,0,1,.066.525.713.713,0,0,1-.066.328h-.459a21.109,21.109,0,0,1-2.165-.066c-.591-.066-1.64-.066-3.215-.066-.263,0-.984.066-2.165.131-.459,0-.787.066-.919.066v-.787a1.757,1.757,0,0,1,.984-.525,12.626,12.626,0,0,0,1.771-.525,1.311,1.311,0,0,0,.131-.59c.066-.984.066-2.559.066-4.658l-.066-4.658a16.9,16.9,0,0,0-.065-2.3c0-.066-.066-.131-.066-.2-.066-.066-.066-.066-.2-.066-.262,0-1.05-.066-2.493-.066a4.094,4.094,0,0,0-1.575.2,9.536,9.536,0,0,0-1.575,1.64c-.2.262-.328.394-.459.394a2.725,2.725,0,0,1-.722-.459,22.524,22.524,0,0,0,1.05-3.215A2.921,2.921,0,0,0,645.178,63.8Z" transform="translate(-375.194 -63.8)" fill="#1f3661"/>
      <path id="Path_1832" data-name="Path 1832" d="M670.366,65.75,670.3,64.9h1.378c.459,0,.853-.066.984-.066h3.018c1.247,1.115,2.3,2.1,3.084,2.952s3.674,3.74,8.66,8.66v-.328l-.066-1.443c0-.853-.066-1.509-.066-1.968a13.76,13.76,0,0,1-.066-1.771c0-.656-.066-1.312-.066-1.837-.066-1.05-.131-1.706-.131-1.837a1.557,1.557,0,0,0-.2-.984,2.043,2.043,0,0,0-1.181-.394,4.948,4.948,0,0,1-.984-.262V64.9l.328-.066,2.428-.066,2.69-.066h.525v.787a2.085,2.085,0,0,1-.591.2,4.211,4.211,0,0,0-.919.262c-.394.262-.656.394-.656.459a.765.765,0,0,0-.131.459V68.44c0,1.181.066,2.1.066,2.821a2.948,2.948,0,0,0,.065.722l.131,4.33v2.165l.066.656-.066.656a3.626,3.626,0,0,0,.066.59v.656l-1.378.066-1.443-1.509L682.9,76.641l-2.1-2.1-1.509-1.575c-.984-.984-1.9-1.837-2.69-2.559l-1.968-1.771.131,4.527V74.87l.066,1.575c0,.656.065,1.378.131,2.165a3.7,3.7,0,0,0,.066.459,2.576,2.576,0,0,0,.131.394,8.514,8.514,0,0,0,2.1.262,2.839,2.839,0,0,0,.328.066l.066.984h-.459c-.262,0-1.115-.066-2.493-.2-1.312,0-2.165.066-2.624.066a4.111,4.111,0,0,0-.722.066.975.975,0,0,1-.394-.066v-.919a1.816,1.816,0,0,1,.591-.066h.459a3.971,3.971,0,0,0,1.247-.131,1.231,1.231,0,0,0,.2-.853c.066-1.312.066-2.1.066-2.362V71.655l-.066-2.493a6.906,6.906,0,0,0-.2-1.968,1.059,1.059,0,0,0-.262-.459,2.6,2.6,0,0,0-.984-.656A10.842,10.842,0,0,0,670.366,65.75Z" transform="translate(-384.307 -64.11)" fill="#1f3661"/>
      <path id="Path_1833" data-name="Path 1833" d="M703.3,64.8a5.885,5.885,0,0,1,1.181.131,21.523,21.523,0,0,0,2.231.131c.262,0,1.05,0,2.3-.066,1.837-.066,3.477-.131,4.921-.131h2.231a18.065,18.065,0,0,1,2.231.2,1.108,1.108,0,0,1,.2.656v3.215h-.918a2.842,2.842,0,0,1-.263-.722l-.459-.853a5.806,5.806,0,0,0-.787-1.115,2.7,2.7,0,0,0-.787-.066,4.339,4.339,0,0,1-.722-.066c-.787-.066-1.575-.066-2.428-.066-.984,0-1.9,0-2.69.066,0,.2-.066.984-.066,2.428v3.609c.2,0,.394.066.525.066,1.443,0,2.493,0,3.149-.066a2.8,2.8,0,0,0,1.181-.262,1.81,1.81,0,0,0,.394-.525c.065-.2.2-.787.459-1.771h.853c0,.722.066,1.247.066,1.64V73.46a7.248,7.248,0,0,0,.066,1.05c0,.459.065.853.065,1.115v.262h-.853a3.218,3.218,0,0,0-.2-.787,6.041,6.041,0,0,0-.459-1.443,1.178,1.178,0,0,0-.459-.328,9.88,9.88,0,0,0-1.837-.066c-1.247,0-2.165,0-2.756.066v.394c0,.984,0,1.771.066,2.428v2.624a.724.724,0,0,0,.328.656,9.173,9.173,0,0,0,3.084.262,12.372,12.372,0,0,0,2.887-.262,2.747,2.747,0,0,0,1.443-.853,6.861,6.861,0,0,0,1.378-2.3c.262,0,.459-.066.656-.066h.394c0,.2-.066.394-.066.525l-.066.394-.459,2.3-.2,1.378c-.525,0-.984.066-1.247.066-.459,0-1.706-.066-3.674-.131-1.378-.066-3.084-.066-5.052-.066-.984,0-2.165.066-3.609.131h-.525l-1.509.066v-.853a5.771,5.771,0,0,1,.919-.131,4.4,4.4,0,0,0,1.771-.394,3.417,3.417,0,0,0,.131-.919V77.463l-.066-4.593V71.492l-.066-1.968V68.146l-.131-1.509v-.262a1.067,1.067,0,0,0-.394-.2,2.319,2.319,0,0,0-.394-.066l-1.378-.2a1.63,1.63,0,0,1-.525-.066Z" transform="translate(-395.656 -64.144)" fill="#1f3661"/>
      <path id="Path_1834" data-name="Path 1834" d="M731.174,79.856a2.573,2.573,0,0,1,.919-.262,5.557,5.557,0,0,0,1.115-.262.713.713,0,0,0,.066-.328V75.066l.066-1.443V71.851c0-.919.065-1.706.065-2.493,0-1.706,0-2.756-.065-3.28l-.722-.131a11.835,11.835,0,0,1-1.312-.131v-.722l.066-.131a6.747,6.747,0,0,1,1.115-.066H733.6a8.911,8.911,0,0,0,.984.066l.656-.066,1.509-.066c.984-.066,1.968-.131,3.018-.131a5.876,5.876,0,0,1,4,1.312,3.859,3.859,0,0,1,1.509,2.952,3.433,3.433,0,0,1-.787,2.231A4.9,4.9,0,0,1,742,72.7a1.549,1.549,0,0,0,.394.59c.328.459.59.919.853,1.247l1.968,3.149A7.192,7.192,0,0,0,746.2,79.2a2.317,2.317,0,0,0,.919.459,3.508,3.508,0,0,1,.853.394.832.832,0,0,1,.066.394v.262h-.59l-.656-.066h-.525a4.345,4.345,0,0,0-.984-.066h-1.247a6.092,6.092,0,0,0-.853.066c-.2,0-.394.066-.525.066l-.394-.787a14.984,14.984,0,0,1-.722-1.378c-.328-.787-.984-2.034-1.837-3.805a6.448,6.448,0,0,0-.853-1.378A2.074,2.074,0,0,0,737.6,73.1h-.853c0,.262-.066.525-.066.853l.066,2.69-.066,2.3a2.464,2.464,0,0,0,.919.328,8.3,8.3,0,0,1,1.64.459,3.483,3.483,0,0,1-.066.919h-.787c-1.771-.131-2.821-.262-3.149-.262h-.459l-1.706.131a10.65,10.65,0,0,1-1.378.066h-.525v-.394C731.109,80.184,731.109,80.053,731.174,79.856Zm5.511-7.873h.853a4.861,4.861,0,0,0,2.952-.722,2.5,2.5,0,0,0,.853-1.968,5.116,5.116,0,0,0-.2-1.443,2.28,2.28,0,0,0-.525-.984,2.746,2.746,0,0,0-1.181-.722,5.208,5.208,0,0,0-1.706-.2,4.346,4.346,0,0,0-.984.066v1.9l-.065.984v1.312a12.161,12.161,0,0,1-.066,1.443v.328Z" transform="translate(-405.225 -64.11)" fill="#1f3661"/>
      <path id="Path_1835" data-name="Path 1835" d="M767.354,64.987c.065.262.131.722.2,1.247.066.853.131,1.509.131,1.968a1.116,1.116,0,0,1-.066.459l-.131.066-.853-.066H766.5a5.942,5.942,0,0,0-1.05-2.165,2.9,2.9,0,0,0-2.165-.984,2.589,2.589,0,0,0-1.9.656,2,2,0,0,0-.722,1.575,2.183,2.183,0,0,0,.722,1.509,7.784,7.784,0,0,0,2.887,1.378,11.584,11.584,0,0,1,1.837.722,5.443,5.443,0,0,1,1.64,1.05,4.346,4.346,0,0,1,.984,1.443,4.588,4.588,0,0,1,.262,1.771,5.742,5.742,0,0,1-.459,2.3,2.964,2.964,0,0,1-.722,1.115,9.652,9.652,0,0,1-1.115.853,5.617,5.617,0,0,1-1.575.722,9.11,9.11,0,0,1-2.1.2,8.224,8.224,0,0,1-2.034-.262l-1.443-.459a2.314,2.314,0,0,1-.787-.328c-.066,0-.066-.131-.131-.262v-.131c0-.066,0-.656-.066-1.706V76.075h1.115a13.127,13.127,0,0,0,.787,1.64,3.189,3.189,0,0,0,.853.984,3.024,3.024,0,0,0,1.115.59,4.663,4.663,0,0,0,1.378.2,3.967,3.967,0,0,0,1.443-.262,2.6,2.6,0,0,0,1.247-.919,2.312,2.312,0,0,0,.459-1.378,2.267,2.267,0,0,0-.853-1.706,9.169,9.169,0,0,0-2.756-1.247,12.016,12.016,0,0,1-3.149-1.443,4.732,4.732,0,0,1-1.378-1.64,4.927,4.927,0,0,1-.525-2.034,4.31,4.31,0,0,1,1.378-3.28,5.614,5.614,0,0,1,4.133-1.378,11.842,11.842,0,0,1,1.771.2C765.911,64.528,766.567,64.725,767.354,64.987Z" transform="translate(-414.571 -63.938)" fill="#1f3661"/>
    </g>
  </g>
</svg>
